<svg width="391" height="147" viewBox="0 0 391 147" fill="none" xmlns="http://www.w3.org/2000/svg">
<rect x="1" y="31" width="68" height="68" fill="#666666" stroke="#333333" stroke-width="2"/>
<path d="M39.9998 26H69.9015C251 26 370 66 370 66L369.5 70C369.5 70 251 30 69.9015 30L39.9998 30V26Z" fill="#666666"/>
<rect x="355" y="84" width="28" height="28" fill="#888888" stroke="#555555" stroke-width="2"/>
<path d="M368 65L370 65.5V83H368V65Z" fill="black"/>
<rect x="41" y="25" width="2" height="11" fill="black"/>
<rect x="64" y="25" width="2" height="11" fill="black"/>
<path d="M276.176 128V119.6H277.472V126.752H281.408V128H276.176ZM285.645 128.12C285.029 128.12 284.477 127.98 283.989 127.7C283.509 127.412 283.129 127.024 282.849 126.536C282.569 126.04 282.429 125.476 282.429 124.844C282.429 124.212 282.569 123.652 282.849 123.164C283.129 122.668 283.509 122.28 283.989 122C284.477 121.712 285.029 121.568 285.645 121.568C286.253 121.568 286.797 121.712 287.277 122C287.765 122.28 288.149 122.668 288.429 123.164C288.709 123.652 288.849 124.212 288.849 124.844C288.849 125.476 288.709 126.04 288.429 126.536C288.149 127.024 287.765 127.412 287.277 127.7C286.797 127.98 286.253 128.12 285.645 128.12ZM285.645 126.992C286.021 126.992 286.357 126.9 286.653 126.716C286.949 126.524 287.181 126.268 287.349 125.948C287.517 125.62 287.597 125.252 287.589 124.844C287.597 124.428 287.517 124.06 287.349 123.74C287.181 123.412 286.949 123.156 286.653 122.972C286.357 122.788 286.021 122.696 285.645 122.696C285.269 122.696 284.929 122.792 284.625 122.984C284.329 123.168 284.097 123.424 283.929 123.752C283.761 124.072 283.681 124.436 283.689 124.844C283.681 125.252 283.761 125.62 283.929 125.948C284.097 126.268 284.329 126.524 284.625 126.716C284.929 126.9 285.269 126.992 285.645 126.992ZM292.62 128.12C292.1 128.12 291.624 127.976 291.192 127.688C290.768 127.4 290.428 127.008 290.172 126.512C289.916 126.016 289.788 125.456 289.788 124.832C289.788 124.2 289.916 123.64 290.172 123.152C290.436 122.656 290.788 122.268 291.228 121.988C291.676 121.708 292.176 121.568 292.728 121.568C293.056 121.568 293.356 121.616 293.628 121.712C293.9 121.808 294.136 121.944 294.336 122.12C294.544 122.288 294.712 122.484 294.84 122.708C294.976 122.932 295.06 123.172 295.092 123.428L294.816 123.332V121.7H296.064V128H294.816V126.5L295.104 126.416C295.056 126.632 294.956 126.844 294.804 127.052C294.66 127.252 294.472 127.432 294.24 127.592C294.016 127.752 293.764 127.88 293.484 127.976C293.212 128.072 292.924 128.12 292.62 128.12ZM292.944 126.98C293.32 126.98 293.652 126.888 293.94 126.704C294.228 126.52 294.452 126.268 294.612 125.948C294.78 125.62 294.864 125.248 294.864 124.832C294.864 124.424 294.78 124.06 294.612 123.74C294.452 123.42 294.228 123.168 293.94 122.984C293.652 122.8 293.32 122.708 292.944 122.708C292.576 122.708 292.248 122.8 291.96 122.984C291.68 123.168 291.456 123.42 291.288 123.74C291.128 124.06 291.048 124.424 291.048 124.832C291.048 125.248 291.128 125.62 291.288 125.948C291.456 126.268 291.68 126.52 291.96 126.704C292.248 126.888 292.576 126.98 292.944 126.98ZM300.418 128.12C299.842 128.12 299.326 127.98 298.87 127.7C298.422 127.412 298.066 127.024 297.802 126.536C297.538 126.04 297.406 125.476 297.406 124.844C297.406 124.212 297.534 123.652 297.79 123.164C298.054 122.668 298.41 122.28 298.858 122C299.306 121.712 299.814 121.568 300.382 121.568C300.694 121.568 300.994 121.62 301.282 121.724C301.578 121.82 301.842 121.956 302.074 122.132C302.306 122.3 302.486 122.488 302.614 122.696C302.75 122.896 302.818 123.1 302.818 123.308L302.458 123.332V119.12H303.694V128H302.458V126.5H302.698C302.698 126.692 302.634 126.884 302.506 127.076C302.378 127.26 302.206 127.432 301.99 127.592C301.782 127.752 301.538 127.88 301.258 127.976C300.986 128.072 300.706 128.12 300.418 128.12ZM300.586 127.052C300.962 127.052 301.294 126.956 301.582 126.764C301.87 126.572 302.094 126.312 302.254 125.984C302.422 125.648 302.506 125.268 302.506 124.844C302.506 124.42 302.422 124.044 302.254 123.716C302.094 123.38 301.87 123.116 301.582 122.924C301.294 122.732 300.962 122.636 300.586 122.636C300.21 122.636 299.878 122.732 299.59 122.924C299.302 123.116 299.074 123.38 298.906 123.716C298.746 124.044 298.666 124.42 298.666 124.844C298.666 125.268 298.746 125.648 298.906 125.984C299.074 126.312 299.302 126.572 299.59 126.764C299.878 126.956 300.21 127.052 300.586 127.052ZM309.443 128V120.992C309.443 120.632 309.523 120.312 309.683 120.032C309.843 119.752 310.063 119.532 310.343 119.372C310.623 119.212 310.947 119.132 311.315 119.132C311.571 119.132 311.811 119.18 312.035 119.276C312.259 119.372 312.439 119.5 312.575 119.66L312.155 120.608C312.051 120.512 311.935 120.436 311.807 120.38C311.687 120.316 311.571 120.284 311.459 120.284C311.291 120.284 311.147 120.312 311.027 120.368C310.915 120.416 310.831 120.496 310.775 120.608C310.719 120.712 310.691 120.84 310.691 120.992V128H310.067C309.963 128 309.859 128 309.755 128C309.651 128 309.547 128 309.443 128ZM308.435 122.948V121.808H312.179V122.948H308.435ZM316.067 128.12C315.451 128.12 314.899 127.98 314.411 127.7C313.931 127.412 313.551 127.024 313.271 126.536C312.991 126.04 312.851 125.476 312.851 124.844C312.851 124.212 312.991 123.652 313.271 123.164C313.551 122.668 313.931 122.28 314.411 122C314.899 121.712 315.451 121.568 316.067 121.568C316.675 121.568 317.219 121.712 317.699 122C318.187 122.28 318.571 122.668 318.851 123.164C319.131 123.652 319.271 124.212 319.271 124.844C319.271 125.476 319.131 126.04 318.851 126.536C318.571 127.024 318.187 127.412 317.699 127.7C317.219 127.98 316.675 128.12 316.067 128.12ZM316.067 126.992C316.443 126.992 316.779 126.9 317.075 126.716C317.371 126.524 317.603 126.268 317.771 125.948C317.939 125.62 318.019 125.252 318.011 124.844C318.019 124.428 317.939 124.06 317.771 123.74C317.603 123.412 317.371 123.156 317.075 122.972C316.779 122.788 316.443 122.696 316.067 122.696C315.691 122.696 315.351 122.792 315.047 122.984C314.751 123.168 314.519 123.424 314.351 123.752C314.183 124.072 314.103 124.436 314.111 124.844C314.103 125.252 314.183 125.62 314.351 125.948C314.519 126.268 314.751 126.524 315.047 126.716C315.351 126.9 315.691 126.992 316.067 126.992ZM320.618 128V121.7H321.866V123.68L321.746 123.2C321.834 122.896 321.982 122.62 322.19 122.372C322.406 122.124 322.65 121.928 322.922 121.784C323.202 121.64 323.49 121.568 323.786 121.568C323.922 121.568 324.05 121.58 324.17 121.604C324.298 121.628 324.398 121.656 324.47 121.688L324.146 123.032C324.05 122.992 323.942 122.96 323.822 122.936C323.71 122.904 323.598 122.888 323.486 122.888C323.27 122.888 323.062 122.932 322.862 123.02C322.67 123.1 322.498 123.216 322.346 123.368C322.202 123.512 322.086 123.684 321.998 123.884C321.91 124.076 321.866 124.288 321.866 124.52V128H320.618ZM327.864 128.12C327.28 128.12 326.756 127.976 326.292 127.688C325.836 127.4 325.472 127.008 325.2 126.512C324.936 126.016 324.804 125.46 324.804 124.844C324.804 124.228 324.936 123.672 325.2 123.176C325.472 122.68 325.836 122.288 326.292 122C326.756 121.712 327.28 121.568 327.864 121.568C328.424 121.568 328.932 121.684 329.388 121.916C329.852 122.14 330.204 122.448 330.444 122.84L329.76 123.68C329.632 123.496 329.468 123.328 329.268 123.176C329.068 123.024 328.856 122.904 328.632 122.816C328.408 122.728 328.192 122.684 327.984 122.684C327.6 122.684 327.256 122.78 326.952 122.972C326.656 123.156 326.42 123.412 326.244 123.74C326.068 124.068 325.98 124.436 325.98 124.844C325.98 125.252 326.072 125.62 326.256 125.948C326.44 126.268 326.684 126.524 326.988 126.716C327.292 126.908 327.628 127.004 327.996 127.004C328.212 127.004 328.42 126.968 328.62 126.896C328.828 126.824 329.028 126.716 329.22 126.572C329.412 126.428 329.592 126.252 329.76 126.044L330.444 126.884C330.188 127.244 329.82 127.54 329.34 127.772C328.868 128.004 328.376 128.12 327.864 128.12ZM334.55 128.12C333.902 128.12 333.326 127.984 332.822 127.712C332.326 127.432 331.934 127.052 331.646 126.572C331.366 126.092 331.226 125.54 331.226 124.916C331.226 124.42 331.306 123.968 331.466 123.56C331.626 123.152 331.846 122.8 332.126 122.504C332.414 122.2 332.754 121.968 333.146 121.808C333.546 121.64 333.978 121.556 334.442 121.556C334.85 121.556 335.23 121.636 335.582 121.796C335.934 121.948 336.238 122.16 336.494 122.432C336.758 122.704 336.958 123.028 337.094 123.404C337.238 123.772 337.306 124.176 337.298 124.616L337.286 125.144H332.138L331.862 124.16H336.218L336.038 124.364V124.076C336.014 123.812 335.926 123.576 335.774 123.368C335.622 123.16 335.43 122.996 335.198 122.876C334.966 122.756 334.714 122.696 334.442 122.696C334.01 122.696 333.646 122.78 333.35 122.948C333.054 123.108 332.83 123.348 332.678 123.668C332.526 123.98 332.45 124.368 332.45 124.832C332.45 125.272 332.542 125.656 332.726 125.984C332.91 126.304 333.17 126.552 333.506 126.728C333.842 126.904 334.23 126.992 334.67 126.992C334.982 126.992 335.27 126.94 335.534 126.836C335.806 126.732 336.098 126.544 336.41 126.272L337.034 127.148C336.842 127.34 336.606 127.508 336.326 127.652C336.054 127.796 335.762 127.912 335.45 128C335.146 128.08 334.846 128.12 334.55 128.12ZM344.621 130.232C343.645 129.624 342.901 128.864 342.389 127.952C341.877 127.04 341.621 126.024 341.621 124.904C341.621 123.792 341.877 122.78 342.389 121.868C342.909 120.948 343.657 120.184 344.633 119.576L345.293 120.32C344.477 120.888 343.853 121.568 343.421 122.36C342.997 123.144 342.785 123.992 342.785 124.904C342.785 125.816 342.997 126.668 343.421 127.46C343.853 128.244 344.477 128.92 345.293 129.488L344.621 130.232ZM346.711 128V119.6H348.007V128H346.711ZM347.287 124.424V123.176H351.619V124.424H347.287ZM347.287 120.848V119.6H352.159V120.848H347.287ZM353.654 130.232L352.994 129.488C353.81 128.92 354.43 128.244 354.854 127.46C355.286 126.668 355.502 125.816 355.502 124.904C355.502 123.992 355.286 123.144 354.854 122.36C354.43 121.568 353.81 120.888 352.994 120.32L353.666 119.576C354.642 120.184 355.386 120.944 355.898 121.856C356.41 122.768 356.666 123.784 356.666 124.904C356.666 126.016 356.406 127.032 355.886 127.952C355.374 128.864 354.63 129.624 353.654 130.232Z" fill="#880000"/>
<path d="M299.176 43V34.6H302.464C303.064 34.6 303.604 34.7 304.084 34.9C304.572 35.1 304.988 35.388 305.332 35.764C305.676 36.14 305.94 36.584 306.124 37.096C306.308 37.608 306.4 38.176 306.4 38.8C306.4 39.424 306.308 39.996 306.124 40.516C305.94 41.028 305.676 41.472 305.332 41.848C304.996 42.216 304.584 42.5 304.096 42.7C303.608 42.9 303.064 43 302.464 43H299.176ZM300.472 41.884L300.436 41.752H302.404C302.828 41.752 303.204 41.684 303.532 41.548C303.868 41.412 304.148 41.22 304.372 40.972C304.604 40.716 304.78 40.404 304.9 40.036C305.02 39.668 305.08 39.256 305.08 38.8C305.08 38.344 305.02 37.936 304.9 37.576C304.78 37.208 304.604 36.896 304.372 36.64C304.14 36.384 303.86 36.188 303.532 36.052C303.204 35.916 302.828 35.848 302.404 35.848H300.4L300.472 35.74V41.884ZM310.781 43.12C310.133 43.12 309.557 42.984 309.053 42.712C308.557 42.432 308.165 42.052 307.877 41.572C307.597 41.092 307.457 40.54 307.457 39.916C307.457 39.42 307.537 38.968 307.697 38.56C307.857 38.152 308.077 37.8 308.357 37.504C308.645 37.2 308.985 36.968 309.377 36.808C309.777 36.64 310.209 36.556 310.673 36.556C311.081 36.556 311.461 36.636 311.813 36.796C312.165 36.948 312.469 37.16 312.725 37.432C312.989 37.704 313.189 38.028 313.325 38.404C313.469 38.772 313.537 39.176 313.529 39.616L313.517 40.144H308.369L308.093 39.16H312.449L312.269 39.364V39.076C312.245 38.812 312.157 38.576 312.005 38.368C311.853 38.16 311.661 37.996 311.429 37.876C311.197 37.756 310.945 37.696 310.673 37.696C310.241 37.696 309.877 37.78 309.581 37.948C309.285 38.108 309.061 38.348 308.909 38.668C308.757 38.98 308.681 39.368 308.681 39.832C308.681 40.272 308.773 40.656 308.957 40.984C309.141 41.304 309.401 41.552 309.737 41.728C310.073 41.904 310.461 41.992 310.901 41.992C311.213 41.992 311.501 41.94 311.765 41.836C312.037 41.732 312.329 41.544 312.641 41.272L313.265 42.148C313.073 42.34 312.837 42.508 312.557 42.652C312.285 42.796 311.993 42.912 311.681 43C311.377 43.08 311.077 43.12 310.781 43.12ZM315.556 43V35.992C315.556 35.632 315.636 35.312 315.796 35.032C315.956 34.752 316.176 34.532 316.456 34.372C316.736 34.212 317.06 34.132 317.428 34.132C317.684 34.132 317.924 34.18 318.148 34.276C318.372 34.372 318.552 34.5 318.688 34.66L318.268 35.608C318.164 35.512 318.048 35.436 317.92 35.38C317.8 35.316 317.684 35.284 317.572 35.284C317.404 35.284 317.26 35.312 317.14 35.368C317.028 35.416 316.944 35.496 316.888 35.608C316.832 35.712 316.804 35.84 316.804 35.992V43H316.18C316.076 43 315.972 43 315.868 43C315.764 43 315.66 43 315.556 43ZM314.548 37.948V36.808H318.292V37.948H314.548ZM319.612 43V34.12H320.848V43H319.612ZM325.417 43.12C324.769 43.12 324.193 42.984 323.689 42.712C323.193 42.432 322.801 42.052 322.513 41.572C322.233 41.092 322.093 40.54 322.093 39.916C322.093 39.42 322.173 38.968 322.333 38.56C322.493 38.152 322.713 37.8 322.993 37.504C323.281 37.2 323.621 36.968 324.013 36.808C324.413 36.64 324.845 36.556 325.309 36.556C325.717 36.556 326.097 36.636 326.449 36.796C326.801 36.948 327.105 37.16 327.361 37.432C327.625 37.704 327.825 38.028 327.961 38.404C328.105 38.772 328.173 39.176 328.165 39.616L328.153 40.144H323.005L322.729 39.16H327.085L326.905 39.364V39.076C326.881 38.812 326.793 38.576 326.641 38.368C326.489 38.16 326.297 37.996 326.065 37.876C325.833 37.756 325.581 37.696 325.309 37.696C324.877 37.696 324.513 37.78 324.217 37.948C323.921 38.108 323.697 38.348 323.545 38.668C323.393 38.98 323.317 39.368 323.317 39.832C323.317 40.272 323.409 40.656 323.593 40.984C323.777 41.304 324.037 41.552 324.373 41.728C324.709 41.904 325.097 41.992 325.537 41.992C325.849 41.992 326.137 41.94 326.401 41.836C326.673 41.732 326.965 41.544 327.277 41.272L327.901 42.148C327.709 42.34 327.473 42.508 327.193 42.652C326.921 42.796 326.629 42.912 326.317 43C326.013 43.08 325.713 43.12 325.417 43.12ZM332.185 43.12C331.601 43.12 331.077 42.976 330.613 42.688C330.157 42.4 329.793 42.008 329.521 41.512C329.257 41.016 329.125 40.46 329.125 39.844C329.125 39.228 329.257 38.672 329.521 38.176C329.793 37.68 330.157 37.288 330.613 37C331.077 36.712 331.601 36.568 332.185 36.568C332.745 36.568 333.253 36.684 333.709 36.916C334.173 37.14 334.525 37.448 334.765 37.84L334.081 38.68C333.953 38.496 333.789 38.328 333.589 38.176C333.389 38.024 333.177 37.904 332.953 37.816C332.729 37.728 332.513 37.684 332.305 37.684C331.921 37.684 331.577 37.78 331.273 37.972C330.977 38.156 330.741 38.412 330.565 38.74C330.389 39.068 330.301 39.436 330.301 39.844C330.301 40.252 330.393 40.62 330.577 40.948C330.761 41.268 331.005 41.524 331.309 41.716C331.613 41.908 331.949 42.004 332.317 42.004C332.533 42.004 332.741 41.968 332.941 41.896C333.149 41.824 333.349 41.716 333.541 41.572C333.733 41.428 333.913 41.252 334.081 41.044L334.765 41.884C334.509 42.244 334.141 42.54 333.661 42.772C333.189 43.004 332.697 43.12 332.185 43.12ZM336.71 43V35.092H337.946V43H336.71ZM335.402 37.9V36.7H339.41V37.9H335.402ZM340.74 43V36.7H341.976V43H340.74ZM341.34 35.308C341.076 35.308 340.872 35.24 340.728 35.104C340.584 34.968 340.512 34.776 340.512 34.528C340.512 34.296 340.584 34.108 340.728 33.964C340.88 33.82 341.084 33.748 341.34 33.748C341.604 33.748 341.808 33.816 341.952 33.952C342.096 34.088 342.168 34.28 342.168 34.528C342.168 34.76 342.092 34.948 341.94 35.092C341.796 35.236 341.596 35.308 341.34 35.308ZM346.708 43.12C346.092 43.12 345.54 42.98 345.052 42.7C344.572 42.412 344.192 42.024 343.912 41.536C343.632 41.04 343.492 40.476 343.492 39.844C343.492 39.212 343.632 38.652 343.912 38.164C344.192 37.668 344.572 37.28 345.052 37C345.54 36.712 346.092 36.568 346.708 36.568C347.316 36.568 347.86 36.712 348.34 37C348.828 37.28 349.212 37.668 349.492 38.164C349.772 38.652 349.912 39.212 349.912 39.844C349.912 40.476 349.772 41.04 349.492 41.536C349.212 42.024 348.828 42.412 348.34 42.7C347.86 42.98 347.316 43.12 346.708 43.12ZM346.708 41.992C347.084 41.992 347.42 41.9 347.716 41.716C348.012 41.524 348.244 41.268 348.412 40.948C348.58 40.62 348.66 40.252 348.652 39.844C348.66 39.428 348.58 39.06 348.412 38.74C348.244 38.412 348.012 38.156 347.716 37.972C347.42 37.788 347.084 37.696 346.708 37.696C346.332 37.696 345.992 37.792 345.688 37.984C345.392 38.168 345.16 38.424 344.992 38.752C344.824 39.072 344.744 39.436 344.752 39.844C344.744 40.252 344.824 40.62 344.992 40.948C345.16 41.268 345.392 41.524 345.688 41.716C345.992 41.9 346.332 41.992 346.708 41.992ZM351.259 43V36.7H352.495V37.996L352.279 38.14C352.359 37.86 352.515 37.604 352.747 37.372C352.979 37.132 353.255 36.94 353.575 36.796C353.895 36.644 354.223 36.568 354.559 36.568C355.039 36.568 355.439 36.664 355.759 36.856C356.079 37.04 356.319 37.324 356.479 37.708C356.639 38.092 356.719 38.576 356.719 39.16V43H355.483V39.244C355.483 38.884 355.435 38.588 355.339 38.356C355.243 38.116 355.095 37.944 354.895 37.84C354.695 37.728 354.447 37.68 354.151 37.696C353.911 37.696 353.691 37.736 353.491 37.816C353.291 37.888 353.115 37.992 352.963 38.128C352.819 38.264 352.703 38.424 352.615 38.608C352.535 38.784 352.495 38.976 352.495 39.184V43H351.883C351.779 43 351.675 43 351.571 43C351.467 43 351.363 43 351.259 43ZM364.375 45.232C363.399 44.624 362.655 43.864 362.143 42.952C361.631 42.04 361.375 41.024 361.375 39.904C361.375 38.792 361.631 37.78 362.143 36.868C362.663 35.948 363.411 35.184 364.387 34.576L365.047 35.32C364.231 35.888 363.607 36.568 363.175 37.36C362.751 38.144 362.539 38.992 362.539 39.904C362.539 40.816 362.751 41.668 363.175 42.46C363.607 43.244 364.231 43.92 365.047 44.488L364.375 45.232ZM368.781 43.12C368.213 43.12 367.705 43.004 367.257 42.772C366.809 42.54 366.457 42.212 366.201 41.788C365.953 41.364 365.829 40.868 365.829 40.3C365.829 39.788 365.913 39.344 366.081 38.968C366.257 38.584 366.505 38.26 366.825 37.996C367.153 37.724 367.545 37.5 368.001 37.324C367.817 37.204 367.637 37.072 367.461 36.928C367.285 36.784 367.141 36.608 367.029 36.4C366.917 36.184 366.861 35.924 366.861 35.62C366.861 35.332 366.941 35.052 367.101 34.78C367.261 34.5 367.513 34.272 367.857 34.096C368.201 33.912 368.645 33.82 369.189 33.82C369.589 33.82 369.937 33.864 370.233 33.952C370.529 34.04 370.777 34.144 370.977 34.264C371.185 34.376 371.337 34.476 371.433 34.564L370.977 35.392C370.729 35.2 370.453 35.036 370.149 34.9C369.853 34.756 369.529 34.684 369.177 34.684C368.841 34.684 368.577 34.732 368.385 34.828C368.201 34.924 368.073 35.044 368.001 35.188C367.929 35.324 367.893 35.456 367.893 35.584C367.893 35.72 367.925 35.856 367.989 35.992C368.053 36.128 368.181 36.276 368.373 36.436C368.573 36.588 368.869 36.768 369.261 36.976C369.973 37.352 370.501 37.724 370.845 38.092C371.189 38.452 371.417 38.808 371.529 39.16C371.641 39.504 371.697 39.844 371.697 40.18C371.697 40.86 371.561 41.416 371.289 41.848C371.017 42.28 370.657 42.6 370.209 42.808C369.769 43.016 369.293 43.12 368.781 43.12ZM368.805 42.256C369.205 42.256 369.541 42.168 369.813 41.992C370.093 41.816 370.305 41.572 370.449 41.26C370.593 40.948 370.665 40.596 370.665 40.204C370.665 39.812 370.593 39.464 370.449 39.16C370.305 38.856 370.097 38.588 369.825 38.356C369.561 38.124 369.249 37.924 368.889 37.756C368.585 37.86 368.309 37.984 368.061 38.128C367.821 38.272 367.613 38.444 367.437 38.644C367.269 38.836 367.137 39.064 367.041 39.328C366.953 39.584 366.909 39.876 366.909 40.204C366.909 40.612 366.985 40.972 367.137 41.284C367.297 41.588 367.517 41.828 367.797 42.004C368.085 42.172 368.421 42.256 368.805 42.256ZM373.244 45.232L372.584 44.488C373.4 43.92 374.02 43.244 374.444 42.46C374.876 41.668 375.092 40.816 375.092 39.904C375.092 38.992 374.876 38.144 374.444 37.36C374.02 36.568 373.4 35.888 372.584 35.32L373.256 34.576C374.232 35.184 374.976 35.944 375.488 36.856C376 37.768 376.256 38.784 376.256 39.904C376.256 41.016 375.996 42.032 375.476 42.952C374.964 43.864 374.22 44.624 373.244 45.232Z" fill="#008800"/>
<path d="M1.176 12V3.6H4.68C5.216 3.6 5.668 3.68 6.036 3.84C6.404 4 6.68 4.24 6.864 4.56C7.056 4.872 7.152 5.256 7.152 5.712C7.152 6.168 7.024 6.556 6.768 6.876C6.52 7.196 6.172 7.416 5.724 7.536V7.296C6.1 7.376 6.428 7.52 6.708 7.728C6.988 7.928 7.204 8.18 7.356 8.484C7.516 8.788 7.596 9.136 7.596 9.528C7.596 9.928 7.532 10.284 7.404 10.596C7.284 10.9 7.1 11.156 6.852 11.364C6.612 11.572 6.32 11.732 5.976 11.844C5.632 11.948 5.24 12 4.8 12H1.176ZM2.472 10.752H4.728C5.056 10.752 5.332 10.704 5.556 10.608C5.788 10.512 5.964 10.372 6.084 10.188C6.212 9.996 6.276 9.768 6.276 9.504C6.276 9.256 6.208 9.044 6.072 8.868C5.944 8.692 5.76 8.56 5.52 8.472C5.28 8.376 4.996 8.328 4.668 8.328H2.472V10.752ZM2.472 7.08H4.608C4.848 7.08 5.06 7.032 5.244 6.936C5.436 6.84 5.584 6.708 5.688 6.54C5.8 6.372 5.856 6.18 5.856 5.964C5.856 5.604 5.736 5.328 5.496 5.136C5.256 4.944 4.912 4.848 4.464 4.848H2.472V7.08ZM11.4443 12.12C10.9243 12.12 10.4483 11.976 10.0163 11.688C9.59225 11.4 9.25225 11.008 8.99625 10.512C8.74025 10.016 8.61225 9.456 8.61225 8.832C8.61225 8.2 8.74025 7.64 8.99625 7.152C9.26025 6.656 9.61225 6.268 10.0523 5.988C10.5003 5.708 11.0003 5.568 11.5523 5.568C11.8803 5.568 12.1803 5.616 12.4523 5.712C12.7243 5.808 12.9603 5.944 13.1603 6.12C13.3683 6.288 13.5363 6.484 13.6643 6.708C13.8003 6.932 13.8843 7.172 13.9163 7.428L13.6403 7.332V5.7H14.8883V12H13.6403V10.5L13.9283 10.416C13.8803 10.632 13.7803 10.844 13.6283 11.052C13.4843 11.252 13.2963 11.432 13.0643 11.592C12.8403 11.752 12.5883 11.88 12.3083 11.976C12.0363 12.072 11.7483 12.12 11.4443 12.12ZM11.7683 10.98C12.1443 10.98 12.4763 10.888 12.7643 10.704C13.0523 10.52 13.2763 10.268 13.4363 9.948C13.6043 9.62 13.6883 9.248 13.6883 8.832C13.6883 8.424 13.6043 8.06 13.4363 7.74C13.2763 7.42 13.0523 7.168 12.7643 6.984C12.4763 6.8 12.1443 6.708 11.7683 6.708C11.4003 6.708 11.0723 6.8 10.7843 6.984C10.5043 7.168 10.2803 7.42 10.1123 7.74C9.95225 8.06 9.87225 8.424 9.87225 8.832C9.87225 9.248 9.95225 9.62 10.1123 9.948C10.2803 10.268 10.5043 10.52 10.7843 10.704C11.0723 10.888 11.4003 10.98 11.7683 10.98ZM16.614 12V5.7H17.862V7.68L17.742 7.2C17.83 6.896 17.978 6.62 18.186 6.372C18.402 6.124 18.646 5.928 18.918 5.784C19.198 5.64 19.486 5.568 19.782 5.568C19.918 5.568 20.046 5.58 20.166 5.604C20.294 5.628 20.394 5.656 20.466 5.688L20.142 7.032C20.046 6.992 19.938 6.96 19.818 6.936C19.706 6.904 19.594 6.888 19.482 6.888C19.266 6.888 19.058 6.932 18.858 7.02C18.666 7.1 18.494 7.216 18.342 7.368C18.198 7.512 18.082 7.684 17.994 7.884C17.906 8.076 17.862 8.288 17.862 8.52V12H16.614ZM25.5011 12V4.992C25.5011 4.632 25.5811 4.312 25.7411 4.032C25.9011 3.752 26.1211 3.532 26.4011 3.372C26.6811 3.212 27.0051 3.132 27.3731 3.132C27.6291 3.132 27.8691 3.18 28.0931 3.276C28.3171 3.372 28.4971 3.5 28.6331 3.66L28.2131 4.608C28.1091 4.512 27.9931 4.436 27.8651 4.38C27.7451 4.316 27.6291 4.284 27.5171 4.284C27.3491 4.284 27.2051 4.312 27.0851 4.368C26.9731 4.416 26.8891 4.496 26.8331 4.608C26.7771 4.712 26.7491 4.84 26.7491 4.992V12H26.1251C26.0211 12 25.9171 12 25.8131 12C25.7091 12 25.6051 12 25.5011 12ZM24.4931 6.948V5.808H28.2371V6.948H24.4931ZM31.7177 12.12C31.1977 12.12 30.7217 11.976 30.2897 11.688C29.8657 11.4 29.5257 11.008 29.2697 10.512C29.0137 10.016 28.8857 9.456 28.8857 8.832C28.8857 8.2 29.0137 7.64 29.2697 7.152C29.5337 6.656 29.8857 6.268 30.3257 5.988C30.7737 5.708 31.2737 5.568 31.8257 5.568C32.1537 5.568 32.4537 5.616 32.7257 5.712C32.9977 5.808 33.2337 5.944 33.4337 6.12C33.6417 6.288 33.8097 6.484 33.9377 6.708C34.0737 6.932 34.1577 7.172 34.1897 7.428L33.9137 7.332V5.7H35.1617V12H33.9137V10.5L34.2017 10.416C34.1537 10.632 34.0537 10.844 33.9017 11.052C33.7577 11.252 33.5697 11.432 33.3377 11.592C33.1137 11.752 32.8617 11.88 32.5817 11.976C32.3097 12.072 32.0217 12.12 31.7177 12.12ZM32.0417 10.98C32.4177 10.98 32.7497 10.888 33.0377 10.704C33.3257 10.52 33.5497 10.268 33.7097 9.948C33.8777 9.62 33.9617 9.248 33.9617 8.832C33.9617 8.424 33.8777 8.06 33.7097 7.74C33.5497 7.42 33.3257 7.168 33.0377 6.984C32.7497 6.8 32.4177 6.708 32.0417 6.708C31.6737 6.708 31.3457 6.8 31.0577 6.984C30.7777 7.168 30.5537 7.42 30.3857 7.74C30.2257 8.06 30.1457 8.424 30.1457 8.832C30.1457 9.248 30.2257 9.62 30.3857 9.948C30.5537 10.268 30.7777 10.52 31.0577 10.704C31.3457 10.888 31.6737 10.98 32.0417 10.98ZM38.9874 12.12C38.4594 12.12 37.9834 12.028 37.5594 11.844C37.1354 11.66 36.7834 11.388 36.5034 11.028L37.3434 10.308C37.5834 10.588 37.8434 10.792 38.1234 10.92C38.4114 11.04 38.7354 11.1 39.0954 11.1C39.2394 11.1 39.3714 11.084 39.4914 11.052C39.6194 11.012 39.7274 10.956 39.8154 10.884C39.9114 10.812 39.9834 10.728 40.0314 10.632C40.0794 10.528 40.1034 10.416 40.1034 10.296C40.1034 10.088 40.0274 9.92 39.8754 9.792C39.7954 9.736 39.6674 9.676 39.4914 9.612C39.3234 9.54 39.1034 9.468 38.8314 9.396C38.3674 9.276 37.9874 9.14 37.6914 8.988C37.3954 8.836 37.1674 8.664 37.0074 8.472C36.8874 8.32 36.7994 8.156 36.7434 7.98C36.6874 7.796 36.6594 7.596 36.6594 7.38C36.6594 7.116 36.7154 6.876 36.8274 6.66C36.9474 6.436 37.1074 6.244 37.3074 6.084C37.5154 5.916 37.7554 5.788 38.0274 5.7C38.3074 5.612 38.6034 5.568 38.9154 5.568C39.2114 5.568 39.5034 5.608 39.7914 5.688C40.0874 5.768 40.3594 5.884 40.6074 6.036C40.8554 6.188 41.0634 6.368 41.2314 6.576L40.5234 7.356C40.3714 7.204 40.2034 7.072 40.0194 6.96C39.8434 6.84 39.6634 6.748 39.4794 6.684C39.2954 6.62 39.1274 6.588 38.9754 6.588C38.8074 6.588 38.6554 6.604 38.5194 6.636C38.3834 6.668 38.2674 6.716 38.1714 6.78C38.0834 6.844 38.0154 6.924 37.9674 7.02C37.9194 7.116 37.8954 7.224 37.8954 7.344C37.9034 7.448 37.9274 7.548 37.9674 7.644C38.0154 7.732 38.0794 7.808 38.1594 7.872C38.2474 7.936 38.3794 8.004 38.5554 8.076C38.7314 8.148 38.9554 8.216 39.2274 8.28C39.6274 8.384 39.9554 8.5 40.2114 8.628C40.4754 8.748 40.6834 8.888 40.8354 9.048C40.9954 9.2 41.1074 9.376 41.1714 9.576C41.2354 9.776 41.2674 10 41.2674 10.248C41.2674 10.608 41.1634 10.932 40.9554 11.22C40.7554 11.5 40.4834 11.72 40.1394 11.88C39.7954 12.04 39.4114 12.12 38.9874 12.12ZM43.4096 12V4.092H44.6456V12H43.4096ZM42.1016 6.9V5.7H46.1096V6.9H42.1016ZM50.1165 12.12C49.4685 12.12 48.8925 11.984 48.3885 11.712C47.8925 11.432 47.5005 11.052 47.2125 10.572C46.9325 10.092 46.7925 9.54 46.7925 8.916C46.7925 8.42 46.8725 7.968 47.0325 7.56C47.1925 7.152 47.4125 6.8 47.6925 6.504C47.9805 6.2 48.3205 5.968 48.7125 5.808C49.1125 5.64 49.5445 5.556 50.0085 5.556C50.4165 5.556 50.7965 5.636 51.1485 5.796C51.5005 5.948 51.8045 6.16 52.0605 6.432C52.3245 6.704 52.5245 7.028 52.6605 7.404C52.8045 7.772 52.8725 8.176 52.8645 8.616L52.8525 9.144H47.7045L47.4285 8.16H51.7845L51.6045 8.364V8.076C51.5805 7.812 51.4925 7.576 51.3405 7.368C51.1885 7.16 50.9965 6.996 50.7645 6.876C50.5325 6.756 50.2805 6.696 50.0085 6.696C49.5765 6.696 49.2125 6.78 48.9165 6.948C48.6205 7.108 48.3965 7.348 48.2445 7.668C48.0925 7.98 48.0165 8.368 48.0165 8.832C48.0165 9.272 48.1085 9.656 48.2925 9.984C48.4765 10.304 48.7365 10.552 49.0725 10.728C49.4085 10.904 49.7965 10.992 50.2365 10.992C50.5485 10.992 50.8365 10.94 51.1005 10.836C51.3725 10.732 51.6645 10.544 51.9765 10.272L52.6005 11.148C52.4085 11.34 52.1725 11.508 51.8925 11.652C51.6205 11.796 51.3285 11.912 51.0165 12C50.7125 12.08 50.4125 12.12 50.1165 12.12ZM54.2078 12V5.7H55.4438V6.996L55.2278 7.14C55.3078 6.86 55.4638 6.604 55.6958 6.372C55.9278 6.132 56.2038 5.94 56.5238 5.796C56.8438 5.644 57.1718 5.568 57.5078 5.568C57.9878 5.568 58.3878 5.664 58.7078 5.856C59.0278 6.04 59.2678 6.324 59.4278 6.708C59.5878 7.092 59.6678 7.576 59.6678 8.16V12H58.4318V8.244C58.4318 7.884 58.3838 7.588 58.2878 7.356C58.1918 7.116 58.0438 6.944 57.8438 6.84C57.6438 6.728 57.3958 6.68 57.0998 6.696C56.8598 6.696 56.6398 6.736 56.4398 6.816C56.2398 6.888 56.0638 6.992 55.9118 7.128C55.7678 7.264 55.6518 7.424 55.5638 7.608C55.4838 7.784 55.4438 7.976 55.4438 8.184V12H54.8318C54.7278 12 54.6238 12 54.5198 12C54.4158 12 54.3118 12 54.2078 12ZM64.2845 12.12C63.6365 12.12 63.0605 11.984 62.5565 11.712C62.0605 11.432 61.6685 11.052 61.3805 10.572C61.1005 10.092 60.9605 9.54 60.9605 8.916C60.9605 8.42 61.0405 7.968 61.2005 7.56C61.3605 7.152 61.5805 6.8 61.8605 6.504C62.1485 6.2 62.4885 5.968 62.8805 5.808C63.2805 5.64 63.7125 5.556 64.1765 5.556C64.5845 5.556 64.9645 5.636 65.3165 5.796C65.6685 5.948 65.9725 6.16 66.2285 6.432C66.4925 6.704 66.6925 7.028 66.8285 7.404C66.9725 7.772 67.0405 8.176 67.0325 8.616L67.0205 9.144H61.8725L61.5965 8.16H65.9525L65.7725 8.364V8.076C65.7485 7.812 65.6605 7.576 65.5085 7.368C65.3565 7.16 65.1645 6.996 64.9325 6.876C64.7005 6.756 64.4485 6.696 64.1765 6.696C63.7445 6.696 63.3805 6.78 63.0845 6.948C62.7885 7.108 62.5645 7.348 62.4125 7.668C62.2605 7.98 62.1845 8.368 62.1845 8.832C62.1845 9.272 62.2765 9.656 62.4605 9.984C62.6445 10.304 62.9045 10.552 63.2405 10.728C63.5765 10.904 63.9645 10.992 64.4045 10.992C64.7165 10.992 65.0045 10.94 65.2685 10.836C65.5405 10.732 65.8325 10.544 66.1445 10.272L66.7685 11.148C66.5765 11.34 66.3405 11.508 66.0605 11.652C65.7885 11.796 65.4965 11.912 65.1845 12C64.8805 12.08 64.5805 12.12 64.2845 12.12ZM71.0037 12.12C70.4277 12.12 69.9117 11.98 69.4557 11.7C69.0077 11.412 68.6517 11.024 68.3877 10.536C68.1237 10.04 67.9917 9.476 67.9917 8.844C67.9917 8.212 68.1197 7.652 68.3757 7.164C68.6397 6.668 68.9957 6.28 69.4437 6C69.8917 5.712 70.3997 5.568 70.9677 5.568C71.2797 5.568 71.5797 5.62 71.8677 5.724C72.1637 5.82 72.4277 5.956 72.6597 6.132C72.8917 6.3 73.0717 6.488 73.1997 6.696C73.3357 6.896 73.4037 7.1 73.4037 7.308L73.0437 7.332V3.12H74.2797V12H73.0437V10.5H73.2837C73.2837 10.692 73.2197 10.884 73.0917 11.076C72.9637 11.26 72.7917 11.432 72.5757 11.592C72.3677 11.752 72.1237 11.88 71.8437 11.976C71.5717 12.072 71.2917 12.12 71.0037 12.12ZM71.1717 11.052C71.5477 11.052 71.8797 10.956 72.1677 10.764C72.4557 10.572 72.6797 10.312 72.8397 9.984C73.0077 9.648 73.0917 9.268 73.0917 8.844C73.0917 8.42 73.0077 8.044 72.8397 7.716C72.6797 7.38 72.4557 7.116 72.1677 6.924C71.8797 6.732 71.5477 6.636 71.1717 6.636C70.7957 6.636 70.4637 6.732 70.1757 6.924C69.8877 7.116 69.6597 7.38 69.4917 7.716C69.3317 8.044 69.2517 8.42 69.2517 8.844C69.2517 9.268 69.3317 9.648 69.4917 9.984C69.6597 10.312 69.8877 10.572 70.1757 10.764C70.4637 10.956 70.7957 11.052 71.1717 11.052ZM81.7685 12.12C81.2485 12.12 80.7725 11.976 80.3405 11.688C79.9165 11.4 79.5765 11.008 79.3205 10.512C79.0645 10.016 78.9365 9.456 78.9365 8.832C78.9365 8.2 79.0645 7.64 79.3205 7.152C79.5845 6.656 79.9365 6.268 80.3765 5.988C80.8245 5.708 81.3245 5.568 81.8765 5.568C82.2045 5.568 82.5045 5.616 82.7765 5.712C83.0485 5.808 83.2845 5.944 83.4845 6.12C83.6925 6.288 83.8605 6.484 83.9885 6.708C84.1245 6.932 84.2085 7.172 84.2405 7.428L83.9645 7.332V5.7H85.2125V12H83.9645V10.5L84.2525 10.416C84.2045 10.632 84.1045 10.844 83.9525 11.052C83.8085 11.252 83.6205 11.432 83.3885 11.592C83.1645 11.752 82.9125 11.88 82.6325 11.976C82.3605 12.072 82.0725 12.12 81.7685 12.12ZM82.0925 10.98C82.4685 10.98 82.8005 10.888 83.0885 10.704C83.3765 10.52 83.6005 10.268 83.7605 9.948C83.9285 9.62 84.0125 9.248 84.0125 8.832C84.0125 8.424 83.9285 8.06 83.7605 7.74C83.6005 7.42 83.3765 7.168 83.0885 6.984C82.8005 6.8 82.4685 6.708 82.0925 6.708C81.7245 6.708 81.3965 6.8 81.1085 6.984C80.8285 7.168 80.6045 7.42 80.4365 7.74C80.2765 8.06 80.1965 8.424 80.1965 8.832C80.1965 9.248 80.2765 9.62 80.4365 9.948C80.6045 10.268 80.8285 10.52 81.1085 10.704C81.3965 10.888 81.7245 10.98 82.0925 10.98ZM89.0382 12.12C88.5102 12.12 88.0342 12.028 87.6102 11.844C87.1862 11.66 86.8342 11.388 86.5542 11.028L87.3942 10.308C87.6342 10.588 87.8942 10.792 88.1742 10.92C88.4622 11.04 88.7862 11.1 89.1462 11.1C89.2902 11.1 89.4222 11.084 89.5422 11.052C89.6702 11.012 89.7782 10.956 89.8662 10.884C89.9622 10.812 90.0342 10.728 90.0822 10.632C90.1302 10.528 90.1542 10.416 90.1542 10.296C90.1542 10.088 90.0782 9.92 89.9262 9.792C89.8462 9.736 89.7182 9.676 89.5422 9.612C89.3742 9.54 89.1542 9.468 88.8822 9.396C88.4182 9.276 88.0382 9.14 87.7422 8.988C87.4462 8.836 87.2182 8.664 87.0582 8.472C86.9382 8.32 86.8502 8.156 86.7942 7.98C86.7382 7.796 86.7102 7.596 86.7102 7.38C86.7102 7.116 86.7662 6.876 86.8782 6.66C86.9982 6.436 87.1582 6.244 87.3582 6.084C87.5662 5.916 87.8062 5.788 88.0782 5.7C88.3582 5.612 88.6542 5.568 88.9662 5.568C89.2622 5.568 89.5542 5.608 89.8422 5.688C90.1382 5.768 90.4102 5.884 90.6582 6.036C90.9062 6.188 91.1142 6.368 91.2822 6.576L90.5742 7.356C90.4222 7.204 90.2542 7.072 90.0702 6.96C89.8942 6.84 89.7142 6.748 89.5302 6.684C89.3462 6.62 89.1782 6.588 89.0262 6.588C88.8582 6.588 88.7062 6.604 88.5702 6.636C88.4342 6.668 88.3182 6.716 88.2222 6.78C88.1342 6.844 88.0662 6.924 88.0182 7.02C87.9702 7.116 87.9462 7.224 87.9462 7.344C87.9542 7.448 87.9782 7.548 88.0182 7.644C88.0662 7.732 88.1302 7.808 88.2102 7.872C88.2982 7.936 88.4302 8.004 88.6062 8.076C88.7822 8.148 89.0062 8.216 89.2782 8.28C89.6782 8.384 90.0062 8.5 90.2622 8.628C90.5262 8.748 90.7342 8.888 90.8862 9.048C91.0462 9.2 91.1582 9.376 91.2222 9.576C91.2862 9.776 91.3182 10 91.3182 10.248C91.3182 10.608 91.2142 10.932 91.0062 11.22C90.8062 11.5 90.5342 11.72 90.1902 11.88C89.8462 12.04 89.4622 12.12 89.0382 12.12ZM98.7197 12.12C98.1357 12.12 97.6117 11.976 97.1477 11.688C96.6917 11.4 96.3277 11.008 96.0557 10.512C95.7917 10.016 95.6597 9.46 95.6597 8.844C95.6597 8.228 95.7917 7.672 96.0557 7.176C96.3277 6.68 96.6917 6.288 97.1477 6C97.6117 5.712 98.1357 5.568 98.7197 5.568C99.2797 5.568 99.7877 5.684 100.244 5.916C100.708 6.14 101.06 6.448 101.3 6.84L100.616 7.68C100.488 7.496 100.324 7.328 100.124 7.176C99.9237 7.024 99.7117 6.904 99.4877 6.816C99.2637 6.728 99.0477 6.684 98.8397 6.684C98.4557 6.684 98.1117 6.78 97.8077 6.972C97.5117 7.156 97.2757 7.412 97.0997 7.74C96.9237 8.068 96.8357 8.436 96.8357 8.844C96.8357 9.252 96.9277 9.62 97.1117 9.948C97.2957 10.268 97.5397 10.524 97.8437 10.716C98.1477 10.908 98.4837 11.004 98.8517 11.004C99.0677 11.004 99.2757 10.968 99.4757 10.896C99.6837 10.824 99.8837 10.716 100.076 10.572C100.268 10.428 100.448 10.252 100.616 10.044L101.3 10.884C101.044 11.244 100.676 11.54 100.196 11.772C99.7237 12.004 99.2317 12.12 98.7197 12.12ZM104.89 12.12C104.37 12.12 103.894 11.976 103.462 11.688C103.038 11.4 102.698 11.008 102.442 10.512C102.186 10.016 102.058 9.456 102.058 8.832C102.058 8.2 102.186 7.64 102.442 7.152C102.706 6.656 103.058 6.268 103.498 5.988C103.946 5.708 104.446 5.568 104.998 5.568C105.326 5.568 105.626 5.616 105.898 5.712C106.17 5.808 106.406 5.944 106.606 6.12C106.814 6.288 106.982 6.484 107.11 6.708C107.246 6.932 107.33 7.172 107.362 7.428L107.086 7.332V5.7H108.334V12H107.086V10.5L107.374 10.416C107.326 10.632 107.226 10.844 107.074 11.052C106.93 11.252 106.742 11.432 106.51 11.592C106.286 11.752 106.034 11.88 105.754 11.976C105.482 12.072 105.194 12.12 104.89 12.12ZM105.214 10.98C105.59 10.98 105.922 10.888 106.21 10.704C106.498 10.52 106.722 10.268 106.882 9.948C107.05 9.62 107.134 9.248 107.134 8.832C107.134 8.424 107.05 8.06 106.882 7.74C106.722 7.42 106.498 7.168 106.21 6.984C105.922 6.8 105.59 6.708 105.214 6.708C104.846 6.708 104.518 6.8 104.23 6.984C103.95 7.168 103.726 7.42 103.558 7.74C103.398 8.06 103.318 8.424 103.318 8.832C103.318 9.248 103.398 9.62 103.558 9.948C103.726 10.268 103.95 10.52 104.23 10.704C104.518 10.888 104.846 10.98 105.214 10.98ZM110.059 12V5.7H111.295V6.996L111.079 7.14C111.159 6.86 111.315 6.604 111.547 6.372C111.779 6.132 112.055 5.94 112.375 5.796C112.695 5.644 113.023 5.568 113.359 5.568C113.839 5.568 114.239 5.664 114.559 5.856C114.879 6.04 115.119 6.324 115.279 6.708C115.439 7.092 115.519 7.576 115.519 8.16V12H114.283V8.244C114.283 7.884 114.235 7.588 114.139 7.356C114.043 7.116 113.895 6.944 113.695 6.84C113.495 6.728 113.247 6.68 112.951 6.696C112.711 6.696 112.491 6.736 112.291 6.816C112.091 6.888 111.915 6.992 111.763 7.128C111.619 7.264 111.503 7.424 111.415 7.608C111.335 7.784 111.295 7.976 111.295 8.184V12H110.683C110.579 12 110.475 12 110.371 12C110.267 12 110.163 12 110.059 12ZM117.976 12V4.092H119.212V12H117.976ZM116.668 6.9V5.7H120.676V6.9H116.668ZM122.006 12V5.7H123.242V12H122.006ZM122.606 4.308C122.342 4.308 122.138 4.24 121.994 4.104C121.85 3.968 121.778 3.776 121.778 3.528C121.778 3.296 121.85 3.108 121.994 2.964C122.146 2.82 122.35 2.748 122.606 2.748C122.87 2.748 123.074 2.816 123.218 2.952C123.362 3.088 123.434 3.28 123.434 3.528C123.434 3.76 123.358 3.948 123.206 4.092C123.062 4.236 122.862 4.308 122.606 4.308ZM125.165 12V3.12H126.401V12H125.165ZM130.976 12.12C130.328 12.12 129.752 11.984 129.248 11.712C128.752 11.432 128.36 11.052 128.072 10.572C127.792 10.092 127.652 9.54 127.652 8.916C127.652 8.42 127.732 7.968 127.892 7.56C128.052 7.152 128.272 6.8 128.552 6.504C128.84 6.2 129.18 5.968 129.572 5.808C129.972 5.64 130.404 5.556 130.868 5.556C131.276 5.556 131.656 5.636 132.008 5.796C132.36 5.948 132.664 6.16 132.92 6.432C133.184 6.704 133.384 7.028 133.52 7.404C133.664 7.772 133.732 8.176 133.724 8.616L133.712 9.144H128.564L128.288 8.16H132.644L132.464 8.364V8.076C132.44 7.812 132.352 7.576 132.2 7.368C132.048 7.16 131.856 6.996 131.624 6.876C131.392 6.756 131.14 6.696 130.868 6.696C130.436 6.696 130.072 6.78 129.776 6.948C129.48 7.108 129.256 7.348 129.104 7.668C128.952 7.98 128.876 8.368 128.876 8.832C128.876 9.272 128.968 9.656 129.152 9.984C129.336 10.304 129.596 10.552 129.932 10.728C130.268 10.904 130.656 10.992 131.096 10.992C131.408 10.992 131.696 10.94 131.96 10.836C132.232 10.732 132.524 10.544 132.836 10.272L133.46 11.148C133.268 11.34 133.032 11.508 132.752 11.652C132.48 11.796 132.188 11.912 131.876 12C131.572 12.08 131.272 12.12 130.976 12.12ZM137.014 12L134.35 5.7H135.682L137.602 10.416L137.374 10.524L139.426 5.7H140.698L137.902 12H137.014ZM144.593 12.12C143.945 12.12 143.369 11.984 142.865 11.712C142.369 11.432 141.977 11.052 141.689 10.572C141.409 10.092 141.269 9.54 141.269 8.916C141.269 8.42 141.349 7.968 141.509 7.56C141.669 7.152 141.889 6.8 142.169 6.504C142.457 6.2 142.797 5.968 143.189 5.808C143.589 5.64 144.021 5.556 144.485 5.556C144.893 5.556 145.273 5.636 145.625 5.796C145.977 5.948 146.281 6.16 146.537 6.432C146.801 6.704 147.001 7.028 147.137 7.404C147.281 7.772 147.349 8.176 147.341 8.616L147.329 9.144H142.181L141.905 8.16H146.261L146.081 8.364V8.076C146.057 7.812 145.969 7.576 145.817 7.368C145.665 7.16 145.473 6.996 145.241 6.876C145.009 6.756 144.757 6.696 144.485 6.696C144.053 6.696 143.689 6.78 143.393 6.948C143.097 7.108 142.873 7.348 142.721 7.668C142.569 7.98 142.493 8.368 142.493 8.832C142.493 9.272 142.585 9.656 142.769 9.984C142.953 10.304 143.213 10.552 143.549 10.728C143.885 10.904 144.273 10.992 144.713 10.992C145.025 10.992 145.313 10.94 145.577 10.836C145.849 10.732 146.141 10.544 146.453 10.272L147.077 11.148C146.885 11.34 146.649 11.508 146.369 11.652C146.097 11.796 145.805 11.912 145.493 12C145.189 12.08 144.889 12.12 144.593 12.12ZM148.684 12V5.7H149.932V7.68L149.812 7.2C149.9 6.896 150.048 6.62 150.256 6.372C150.472 6.124 150.716 5.928 150.988 5.784C151.268 5.64 151.556 5.568 151.852 5.568C151.988 5.568 152.116 5.58 152.236 5.604C152.364 5.628 152.464 5.656 152.536 5.688L152.212 7.032C152.116 6.992 152.008 6.96 151.888 6.936C151.776 6.904 151.664 6.888 151.552 6.888C151.336 6.888 151.128 6.932 150.928 7.02C150.736 7.1 150.564 7.216 150.412 7.368C150.268 7.512 150.152 7.684 150.064 7.884C149.976 8.076 149.932 8.288 149.932 8.52V12H148.684Z" fill="black"/>
<path d="M368.293 139.707C368.683 140.098 369.317 140.098 369.707 139.707L376.071 133.343C376.462 132.953 376.462 132.319 376.071 131.929C375.681 131.538 375.047 131.538 374.657 131.929L369 137.586L363.343 131.929C362.953 131.538 362.319 131.538 361.929 131.929C361.538 132.319 361.538 132.953 361.929 133.343L368.293 139.707ZM368 111L368 139L370 139L370 111L368 111Z" fill="#880000"/>
<line x1="370" y1="26.5" x2="40" y2="26.5" stroke="#666666" stroke-dasharray="2 2"/>
<line x1="391" y1="27" x2="377" y2="27" stroke="#008800" stroke-width="2"/>
<line x1="384" y1="66" x2="384" y2="26" stroke="#008800" stroke-width="2"/>
<line x1="377" y1="65" x2="391" y2="65" stroke="#008800" stroke-width="2"/>
<path d="M235.761 144L239.013 135.6H240.333L243.561 144H242.181L240.261 138.936C240.237 138.88 240.189 138.744 240.117 138.528C240.053 138.312 239.977 138.072 239.889 137.808C239.801 137.544 239.721 137.304 239.649 137.088C239.577 136.864 239.529 136.72 239.505 136.656L239.781 136.644C239.733 136.78 239.673 136.952 239.601 137.16C239.537 137.368 239.465 137.588 239.385 137.82C239.313 138.052 239.241 138.272 239.169 138.48C239.097 138.68 239.037 138.848 238.989 138.984L237.081 144H235.761ZM237.201 141.912L237.681 140.664H241.497L242.049 141.912H237.201ZM244.727 146.64V137.7H245.975V139.14L245.783 139.032C245.831 138.792 245.967 138.564 246.191 138.348C246.415 138.124 246.687 137.944 247.007 137.808C247.335 137.664 247.671 137.592 248.015 137.592C248.583 137.592 249.087 137.732 249.527 138.012C249.967 138.292 250.315 138.676 250.571 139.164C250.827 139.652 250.955 140.212 250.955 140.844C250.955 141.468 250.827 142.028 250.571 142.524C250.323 143.012 249.979 143.4 249.539 143.688C249.099 143.968 248.603 144.108 248.051 144.108C247.683 144.108 247.327 144.036 246.983 143.892C246.639 143.74 246.347 143.548 246.107 143.316C245.867 143.084 245.719 142.844 245.663 142.596L245.975 142.428V146.64H244.727ZM247.847 142.968C248.215 142.968 248.543 142.876 248.831 142.692C249.119 142.508 249.347 142.256 249.515 141.936C249.683 141.616 249.767 141.252 249.767 140.844C249.767 140.436 249.683 140.076 249.515 139.764C249.355 139.444 249.131 139.192 248.843 139.008C248.555 138.824 248.223 138.732 247.847 138.732C247.471 138.732 247.139 138.824 246.851 139.008C246.563 139.184 246.335 139.432 246.167 139.752C245.999 140.072 245.915 140.436 245.915 140.844C245.915 141.252 245.999 141.616 246.167 141.936C246.335 142.256 246.563 142.508 246.851 142.692C247.139 142.876 247.471 142.968 247.847 142.968ZM252.298 146.64V137.7H253.546V139.14L253.354 139.032C253.402 138.792 253.538 138.564 253.762 138.348C253.986 138.124 254.258 137.944 254.578 137.808C254.906 137.664 255.242 137.592 255.586 137.592C256.154 137.592 256.658 137.732 257.098 138.012C257.538 138.292 257.886 138.676 258.142 139.164C258.398 139.652 258.526 140.212 258.526 140.844C258.526 141.468 258.398 142.028 258.142 142.524C257.894 143.012 257.55 143.4 257.11 143.688C256.67 143.968 256.174 144.108 255.622 144.108C255.254 144.108 254.898 144.036 254.554 143.892C254.21 143.74 253.918 143.548 253.678 143.316C253.438 143.084 253.29 142.844 253.234 142.596L253.546 142.428V146.64H252.298ZM255.418 142.968C255.786 142.968 256.114 142.876 256.402 142.692C256.69 142.508 256.918 142.256 257.086 141.936C257.254 141.616 257.338 141.252 257.338 140.844C257.338 140.436 257.254 140.076 257.086 139.764C256.926 139.444 256.702 139.192 256.414 139.008C256.126 138.824 255.794 138.732 255.418 138.732C255.042 138.732 254.71 138.824 254.422 139.008C254.134 139.184 253.906 139.432 253.738 139.752C253.57 140.072 253.486 140.436 253.486 140.844C253.486 141.252 253.57 141.616 253.738 141.936C253.906 142.256 254.134 142.508 254.422 142.692C254.71 142.876 255.042 142.968 255.418 142.968ZM259.892 144V135.12H261.128V144H259.892ZM263.084 144V137.7H264.32V144H263.084ZM263.684 136.308C263.42 136.308 263.216 136.24 263.072 136.104C262.928 135.968 262.856 135.776 262.856 135.528C262.856 135.296 262.928 135.108 263.072 134.964C263.224 134.82 263.428 134.748 263.684 134.748C263.948 134.748 264.152 134.816 264.296 134.952C264.44 135.088 264.512 135.28 264.512 135.528C264.512 135.76 264.436 135.948 264.284 136.092C264.14 136.236 263.94 136.308 263.684 136.308ZM269.159 144.12C268.511 144.12 267.935 143.984 267.431 143.712C266.935 143.432 266.543 143.052 266.255 142.572C265.975 142.092 265.835 141.54 265.835 140.916C265.835 140.42 265.915 139.968 266.075 139.56C266.235 139.152 266.455 138.8 266.735 138.504C267.023 138.2 267.363 137.968 267.755 137.808C268.155 137.64 268.587 137.556 269.051 137.556C269.459 137.556 269.839 137.636 270.191 137.796C270.543 137.948 270.847 138.16 271.103 138.432C271.367 138.704 271.567 139.028 271.703 139.404C271.847 139.772 271.915 140.176 271.907 140.616L271.895 141.144H266.747L266.471 140.16H270.827L270.647 140.364V140.076C270.623 139.812 270.535 139.576 270.383 139.368C270.231 139.16 270.039 138.996 269.807 138.876C269.575 138.756 269.323 138.696 269.051 138.696C268.619 138.696 268.255 138.78 267.959 138.948C267.663 139.108 267.439 139.348 267.287 139.668C267.135 139.98 267.059 140.368 267.059 140.832C267.059 141.272 267.151 141.656 267.335 141.984C267.519 142.304 267.779 142.552 268.115 142.728C268.451 142.904 268.839 142.992 269.279 142.992C269.591 142.992 269.879 142.94 270.143 142.836C270.415 142.732 270.707 142.544 271.019 142.272L271.643 143.148C271.451 143.34 271.215 143.508 270.935 143.652C270.663 143.796 270.371 143.912 270.059 144C269.755 144.08 269.455 144.12 269.159 144.12ZM275.879 144.12C275.303 144.12 274.787 143.98 274.331 143.7C273.883 143.412 273.527 143.024 273.263 142.536C272.999 142.04 272.867 141.476 272.867 140.844C272.867 140.212 272.995 139.652 273.251 139.164C273.515 138.668 273.871 138.28 274.319 138C274.767 137.712 275.275 137.568 275.843 137.568C276.155 137.568 276.455 137.62 276.743 137.724C277.039 137.82 277.303 137.956 277.535 138.132C277.767 138.3 277.947 138.488 278.075 138.696C278.211 138.896 278.279 139.1 278.279 139.308L277.919 139.332V135.12H279.155V144H277.919V142.5H278.159C278.159 142.692 278.095 142.884 277.967 143.076C277.839 143.26 277.667 143.432 277.451 143.592C277.243 143.752 276.999 143.88 276.719 143.976C276.447 144.072 276.167 144.12 275.879 144.12ZM276.047 143.052C276.423 143.052 276.755 142.956 277.043 142.764C277.331 142.572 277.555 142.312 277.715 141.984C277.883 141.648 277.967 141.268 277.967 140.844C277.967 140.42 277.883 140.044 277.715 139.716C277.555 139.38 277.331 139.116 277.043 138.924C276.755 138.732 276.423 138.636 276.047 138.636C275.671 138.636 275.339 138.732 275.051 138.924C274.763 139.116 274.535 139.38 274.367 139.716C274.207 140.044 274.127 140.42 274.127 140.844C274.127 141.268 274.207 141.648 274.367 141.984C274.535 142.312 274.763 142.572 275.051 142.764C275.339 142.956 275.671 143.052 276.047 143.052ZM284.999 144V136.092H286.235V144H284.999ZM283.691 138.9V137.7H287.699V138.9H283.691ZM291.598 144.12C290.982 144.12 290.43 143.98 289.942 143.7C289.462 143.412 289.082 143.024 288.802 142.536C288.522 142.04 288.382 141.476 288.382 140.844C288.382 140.212 288.522 139.652 288.802 139.164C289.082 138.668 289.462 138.28 289.942 138C290.43 137.712 290.982 137.568 291.598 137.568C292.206 137.568 292.75 137.712 293.23 138C293.718 138.28 294.102 138.668 294.382 139.164C294.662 139.652 294.802 140.212 294.802 140.844C294.802 141.476 294.662 142.04 294.382 142.536C294.102 143.024 293.718 143.412 293.23 143.7C292.75 143.98 292.206 144.12 291.598 144.12ZM291.598 142.992C291.974 142.992 292.31 142.9 292.606 142.716C292.902 142.524 293.134 142.268 293.302 141.948C293.47 141.62 293.55 141.252 293.542 140.844C293.55 140.428 293.47 140.06 293.302 139.74C293.134 139.412 292.902 139.156 292.606 138.972C292.31 138.788 291.974 138.696 291.598 138.696C291.222 138.696 290.882 138.792 290.578 138.984C290.282 139.168 290.05 139.424 289.882 139.752C289.714 140.072 289.634 140.436 289.642 140.844C289.634 141.252 289.714 141.62 289.882 141.948C290.05 142.268 290.282 142.524 290.578 142.716C290.882 142.9 291.222 142.992 291.598 142.992ZM302.452 144.12C301.804 144.12 301.228 143.984 300.724 143.712C300.228 143.432 299.836 143.052 299.548 142.572C299.268 142.092 299.128 141.54 299.128 140.916C299.128 140.42 299.208 139.968 299.368 139.56C299.528 139.152 299.748 138.8 300.028 138.504C300.316 138.2 300.656 137.968 301.048 137.808C301.448 137.64 301.88 137.556 302.344 137.556C302.752 137.556 303.132 137.636 303.484 137.796C303.836 137.948 304.14 138.16 304.396 138.432C304.66 138.704 304.86 139.028 304.996 139.404C305.14 139.772 305.208 140.176 305.2 140.616L305.188 141.144H300.04L299.764 140.16H304.12L303.94 140.364V140.076C303.916 139.812 303.828 139.576 303.676 139.368C303.524 139.16 303.332 138.996 303.1 138.876C302.868 138.756 302.616 138.696 302.344 138.696C301.912 138.696 301.548 138.78 301.252 138.948C300.956 139.108 300.732 139.348 300.58 139.668C300.428 139.98 300.352 140.368 300.352 140.832C300.352 141.272 300.444 141.656 300.628 141.984C300.812 142.304 301.072 142.552 301.408 142.728C301.744 142.904 302.132 142.992 302.572 142.992C302.884 142.992 303.172 142.94 303.436 142.836C303.708 142.732 304 142.544 304.312 142.272L304.936 143.148C304.744 143.34 304.508 143.508 304.228 143.652C303.956 143.796 303.664 143.912 303.352 144C303.048 144.08 302.748 144.12 302.452 144.12ZM306.544 144V137.7H307.78V138.996L307.564 139.14C307.644 138.86 307.8 138.604 308.032 138.372C308.264 138.132 308.54 137.94 308.86 137.796C309.18 137.644 309.508 137.568 309.844 137.568C310.324 137.568 310.724 137.664 311.044 137.856C311.364 138.04 311.604 138.324 311.764 138.708C311.924 139.092 312.004 139.576 312.004 140.16V144H310.768V140.244C310.768 139.884 310.72 139.588 310.624 139.356C310.528 139.116 310.38 138.944 310.18 138.84C309.98 138.728 309.732 138.68 309.436 138.696C309.196 138.696 308.976 138.736 308.776 138.816C308.576 138.888 308.4 138.992 308.248 139.128C308.104 139.264 307.988 139.424 307.9 139.608C307.82 139.784 307.78 139.976 307.78 140.184V144H307.168C307.064 144 306.96 144 306.856 144C306.752 144 306.648 144 306.544 144ZM316.308 144.12C315.732 144.12 315.216 143.98 314.76 143.7C314.312 143.412 313.956 143.024 313.692 142.536C313.428 142.04 313.296 141.476 313.296 140.844C313.296 140.212 313.424 139.652 313.68 139.164C313.944 138.668 314.3 138.28 314.748 138C315.196 137.712 315.704 137.568 316.272 137.568C316.584 137.568 316.884 137.62 317.172 137.724C317.468 137.82 317.732 137.956 317.964 138.132C318.196 138.3 318.376 138.488 318.504 138.696C318.64 138.896 318.708 139.1 318.708 139.308L318.348 139.332V135.12H319.584V144H318.348V142.5H318.588C318.588 142.692 318.524 142.884 318.396 143.076C318.268 143.26 318.096 143.432 317.88 143.592C317.672 143.752 317.428 143.88 317.148 143.976C316.876 144.072 316.596 144.12 316.308 144.12ZM316.476 143.052C316.852 143.052 317.184 142.956 317.472 142.764C317.76 142.572 317.984 142.312 318.144 141.984C318.312 141.648 318.396 141.268 318.396 140.844C318.396 140.42 318.312 140.044 318.144 139.716C317.984 139.38 317.76 139.116 317.472 138.924C317.184 138.732 316.852 138.636 316.476 138.636C316.1 138.636 315.768 138.732 315.48 138.924C315.192 139.116 314.964 139.38 314.796 139.716C314.636 140.044 314.556 140.42 314.556 140.844C314.556 141.268 314.636 141.648 314.796 141.984C314.964 142.312 315.192 142.572 315.48 142.764C315.768 142.956 316.1 143.052 316.476 143.052ZM327.481 144.12C326.865 144.12 326.313 143.98 325.825 143.7C325.345 143.412 324.965 143.024 324.685 142.536C324.405 142.04 324.265 141.476 324.265 140.844C324.265 140.212 324.405 139.652 324.685 139.164C324.965 138.668 325.345 138.28 325.825 138C326.313 137.712 326.865 137.568 327.481 137.568C328.089 137.568 328.633 137.712 329.113 138C329.601 138.28 329.985 138.668 330.265 139.164C330.545 139.652 330.685 140.212 330.685 140.844C330.685 141.476 330.545 142.04 330.265 142.536C329.985 143.024 329.601 143.412 329.113 143.7C328.633 143.98 328.089 144.12 327.481 144.12ZM327.481 142.992C327.857 142.992 328.193 142.9 328.489 142.716C328.785 142.524 329.017 142.268 329.185 141.948C329.353 141.62 329.433 141.252 329.425 140.844C329.433 140.428 329.353 140.06 329.185 139.74C329.017 139.412 328.785 139.156 328.489 138.972C328.193 138.788 327.857 138.696 327.481 138.696C327.105 138.696 326.765 138.792 326.461 138.984C326.165 139.168 325.933 139.424 325.765 139.752C325.597 140.072 325.517 140.436 325.525 140.844C325.517 141.252 325.597 141.62 325.765 141.948C325.933 142.268 326.165 142.524 326.461 142.716C326.765 142.9 327.105 142.992 327.481 142.992ZM332.482 144V136.992C332.482 136.632 332.562 136.312 332.722 136.032C332.882 135.752 333.102 135.532 333.382 135.372C333.662 135.212 333.986 135.132 334.354 135.132C334.61 135.132 334.85 135.18 335.074 135.276C335.298 135.372 335.478 135.5 335.614 135.66L335.194 136.608C335.09 136.512 334.974 136.436 334.846 136.38C334.726 136.316 334.61 136.284 334.498 136.284C334.33 136.284 334.186 136.312 334.066 136.368C333.954 136.416 333.87 136.496 333.814 136.608C333.758 136.712 333.73 136.84 333.73 136.992V144H333.106C333.002 144 332.898 144 332.794 144C332.69 144 332.586 144 332.482 144ZM331.474 138.948V137.808H335.218V138.948H331.474ZM343.184 144.12C342.912 144.12 342.64 144.076 342.368 143.988C342.104 143.9 341.86 143.784 341.636 143.64C341.42 143.488 341.236 143.324 341.084 143.148C340.94 142.964 340.844 142.78 340.796 142.596L341.108 142.428V143.964H339.872V135.12H341.108V139.14L340.916 139.032C340.956 138.848 341.044 138.672 341.18 138.504C341.316 138.328 341.488 138.172 341.696 138.036C341.912 137.892 342.144 137.78 342.392 137.7C342.64 137.612 342.892 137.568 343.148 137.568C343.716 137.568 344.22 137.708 344.66 137.988C345.1 138.268 345.448 138.656 345.704 139.152C345.96 139.64 346.088 140.2 346.088 140.832C346.088 141.464 345.96 142.028 345.704 142.524C345.456 143.02 345.112 143.412 344.672 143.7C344.232 143.98 343.736 144.12 343.184 144.12ZM342.98 142.992C343.348 142.992 343.676 142.9 343.964 142.716C344.252 142.524 344.48 142.268 344.648 141.948C344.816 141.62 344.9 141.248 344.9 140.832C344.9 140.424 344.816 140.06 344.648 139.74C344.488 139.412 344.264 139.156 343.976 138.972C343.688 138.788 343.356 138.696 342.98 138.696C342.604 138.696 342.272 138.788 341.984 138.972C341.696 139.156 341.468 139.412 341.3 139.74C341.132 140.06 341.048 140.424 341.048 140.832C341.048 141.248 341.132 141.62 341.3 141.948C341.468 142.268 341.696 142.524 341.984 142.716C342.272 142.9 342.604 142.992 342.98 142.992ZM349.854 144.12C349.334 144.12 348.858 143.976 348.426 143.688C348.002 143.4 347.662 143.008 347.406 142.512C347.15 142.016 347.022 141.456 347.022 140.832C347.022 140.2 347.15 139.64 347.406 139.152C347.67 138.656 348.022 138.268 348.462 137.988C348.91 137.708 349.41 137.568 349.962 137.568C350.29 137.568 350.59 137.616 350.862 137.712C351.134 137.808 351.37 137.944 351.57 138.12C351.778 138.288 351.946 138.484 352.074 138.708C352.21 138.932 352.294 139.172 352.326 139.428L352.05 139.332V137.7H353.298V144H352.05V142.5L352.338 142.416C352.29 142.632 352.19 142.844 352.038 143.052C351.894 143.252 351.706 143.432 351.474 143.592C351.25 143.752 350.998 143.88 350.718 143.976C350.446 144.072 350.158 144.12 349.854 144.12ZM350.178 142.98C350.554 142.98 350.886 142.888 351.174 142.704C351.462 142.52 351.686 142.268 351.846 141.948C352.014 141.62 352.098 141.248 352.098 140.832C352.098 140.424 352.014 140.06 351.846 139.74C351.686 139.42 351.462 139.168 351.174 138.984C350.886 138.8 350.554 138.708 350.178 138.708C349.81 138.708 349.482 138.8 349.194 138.984C348.914 139.168 348.69 139.42 348.522 139.74C348.362 140.06 348.282 140.424 348.282 140.832C348.282 141.248 348.362 141.62 348.522 141.948C348.69 142.268 348.914 142.52 349.194 142.704C349.482 142.888 349.81 142.98 350.178 142.98ZM355.024 144V137.7H356.272V139.68L356.152 139.2C356.24 138.896 356.388 138.62 356.596 138.372C356.812 138.124 357.056 137.928 357.328 137.784C357.608 137.64 357.896 137.568 358.192 137.568C358.328 137.568 358.456 137.58 358.576 137.604C358.704 137.628 358.804 137.656 358.876 137.688L358.552 139.032C358.456 138.992 358.348 138.96 358.228 138.936C358.116 138.904 358.004 138.888 357.892 138.888C357.676 138.888 357.468 138.932 357.268 139.02C357.076 139.1 356.904 139.216 356.752 139.368C356.608 139.512 356.492 139.684 356.404 139.884C356.316 140.076 356.272 140.288 356.272 140.52V144H355.024Z" fill="black"/>
</svg>
