<svg width="430" height="124" viewBox="0 0 430 124" fill="none" xmlns="http://www.w3.org/2000/svg">
<rect x="1" y="36" width="68" height="68" fill="#666666" stroke="#333333" stroke-width="2"/>
<rect x="361" y="36" width="68" height="68" fill="#666666" stroke="#333333" stroke-width="2"/>
<path d="M49.9998 30C49.9998 30 146 40 215 40C284 40 380 30 380 30V34C380 34 284 44 215 44C146 44 49.9998 34 49.9998 34V30Z" fill="#666666"/>
<rect x="201" y="59" width="28" height="28" fill="#888888" stroke="#555555" stroke-width="2"/>
<rect x="214" y="40" width="2" height="18" fill="black"/>
<rect x="64" y="31" width="2" height="11" fill="black"/>
<rect x="364" y="31" width="2" height="11" fill="black"/>
<path d="M217.176 23V14.6H220.464C221.064 14.6 221.604 14.7 222.084 14.9C222.572 15.1 222.988 15.388 223.332 15.764C223.676 16.14 223.94 16.584 224.124 17.096C224.308 17.608 224.4 18.176 224.4 18.8C224.4 19.424 224.308 19.996 224.124 20.516C223.94 21.028 223.676 21.472 223.332 21.848C222.996 22.216 222.584 22.5 222.096 22.7C221.608 22.9 221.064 23 220.464 23H217.176ZM218.472 21.884L218.436 21.752H220.404C220.828 21.752 221.204 21.684 221.532 21.548C221.868 21.412 222.148 21.22 222.372 20.972C222.604 20.716 222.78 20.404 222.9 20.036C223.02 19.668 223.08 19.256 223.08 18.8C223.08 18.344 223.02 17.936 222.9 17.576C222.78 17.208 222.604 16.896 222.372 16.64C222.14 16.384 221.86 16.188 221.532 16.052C221.204 15.916 220.828 15.848 220.404 15.848H218.4L218.472 15.74V21.884ZM228.781 23.12C228.133 23.12 227.557 22.984 227.053 22.712C226.557 22.432 226.165 22.052 225.877 21.572C225.597 21.092 225.457 20.54 225.457 19.916C225.457 19.42 225.537 18.968 225.697 18.56C225.857 18.152 226.077 17.8 226.357 17.504C226.645 17.2 226.985 16.968 227.377 16.808C227.777 16.64 228.209 16.556 228.673 16.556C229.081 16.556 229.461 16.636 229.813 16.796C230.165 16.948 230.469 17.16 230.725 17.432C230.989 17.704 231.189 18.028 231.325 18.404C231.469 18.772 231.537 19.176 231.529 19.616L231.517 20.144H226.369L226.093 19.16H230.449L230.269 19.364V19.076C230.245 18.812 230.157 18.576 230.005 18.368C229.853 18.16 229.661 17.996 229.429 17.876C229.197 17.756 228.945 17.696 228.673 17.696C228.241 17.696 227.877 17.78 227.581 17.948C227.285 18.108 227.061 18.348 226.909 18.668C226.757 18.98 226.681 19.368 226.681 19.832C226.681 20.272 226.773 20.656 226.957 20.984C227.141 21.304 227.401 21.552 227.737 21.728C228.073 21.904 228.461 21.992 228.901 21.992C229.213 21.992 229.501 21.94 229.765 21.836C230.037 21.732 230.329 21.544 230.641 21.272L231.265 22.148C231.073 22.34 230.837 22.508 230.557 22.652C230.285 22.796 229.993 22.912 229.681 23C229.377 23.08 229.077 23.12 228.781 23.12ZM233.556 23V15.992C233.556 15.632 233.636 15.312 233.796 15.032C233.956 14.752 234.176 14.532 234.456 14.372C234.736 14.212 235.06 14.132 235.428 14.132C235.684 14.132 235.924 14.18 236.148 14.276C236.372 14.372 236.552 14.5 236.688 14.66L236.268 15.608C236.164 15.512 236.048 15.436 235.92 15.38C235.8 15.316 235.684 15.284 235.572 15.284C235.404 15.284 235.26 15.312 235.14 15.368C235.028 15.416 234.944 15.496 234.888 15.608C234.832 15.712 234.804 15.84 234.804 15.992V23H234.18C234.076 23 233.972 23 233.868 23C233.764 23 233.66 23 233.556 23ZM232.548 17.948V16.808H236.292V17.948H232.548ZM237.612 23V14.12H238.848V23H237.612ZM243.417 23.12C242.769 23.12 242.193 22.984 241.689 22.712C241.193 22.432 240.801 22.052 240.513 21.572C240.233 21.092 240.093 20.54 240.093 19.916C240.093 19.42 240.173 18.968 240.333 18.56C240.493 18.152 240.713 17.8 240.993 17.504C241.281 17.2 241.621 16.968 242.013 16.808C242.413 16.64 242.845 16.556 243.309 16.556C243.717 16.556 244.097 16.636 244.449 16.796C244.801 16.948 245.105 17.16 245.361 17.432C245.625 17.704 245.825 18.028 245.961 18.404C246.105 18.772 246.173 19.176 246.165 19.616L246.153 20.144H241.005L240.729 19.16H245.085L244.905 19.364V19.076C244.881 18.812 244.793 18.576 244.641 18.368C244.489 18.16 244.297 17.996 244.065 17.876C243.833 17.756 243.581 17.696 243.309 17.696C242.877 17.696 242.513 17.78 242.217 17.948C241.921 18.108 241.697 18.348 241.545 18.668C241.393 18.98 241.317 19.368 241.317 19.832C241.317 20.272 241.409 20.656 241.593 20.984C241.777 21.304 242.037 21.552 242.373 21.728C242.709 21.904 243.097 21.992 243.537 21.992C243.849 21.992 244.137 21.94 244.401 21.836C244.673 21.732 244.965 21.544 245.277 21.272L245.901 22.148C245.709 22.34 245.473 22.508 245.193 22.652C244.921 22.796 244.629 22.912 244.317 23C244.013 23.08 243.713 23.12 243.417 23.12ZM250.185 23.12C249.601 23.12 249.077 22.976 248.613 22.688C248.157 22.4 247.793 22.008 247.521 21.512C247.257 21.016 247.125 20.46 247.125 19.844C247.125 19.228 247.257 18.672 247.521 18.176C247.793 17.68 248.157 17.288 248.613 17C249.077 16.712 249.601 16.568 250.185 16.568C250.745 16.568 251.253 16.684 251.709 16.916C252.173 17.14 252.525 17.448 252.765 17.84L252.081 18.68C251.953 18.496 251.789 18.328 251.589 18.176C251.389 18.024 251.177 17.904 250.953 17.816C250.729 17.728 250.513 17.684 250.305 17.684C249.921 17.684 249.577 17.78 249.273 17.972C248.977 18.156 248.741 18.412 248.565 18.74C248.389 19.068 248.301 19.436 248.301 19.844C248.301 20.252 248.393 20.62 248.577 20.948C248.761 21.268 249.005 21.524 249.309 21.716C249.613 21.908 249.949 22.004 250.317 22.004C250.533 22.004 250.741 21.968 250.941 21.896C251.149 21.824 251.349 21.716 251.541 21.572C251.733 21.428 251.913 21.252 252.081 21.044L252.765 21.884C252.509 22.244 252.141 22.54 251.661 22.772C251.189 23.004 250.697 23.12 250.185 23.12ZM254.71 23V15.092H255.946V23H254.71ZM253.402 17.9V16.7H257.41V17.9H253.402ZM258.74 23V16.7H259.976V23H258.74ZM259.34 15.308C259.076 15.308 258.872 15.24 258.728 15.104C258.584 14.968 258.512 14.776 258.512 14.528C258.512 14.296 258.584 14.108 258.728 13.964C258.88 13.82 259.084 13.748 259.34 13.748C259.604 13.748 259.808 13.816 259.952 13.952C260.096 14.088 260.168 14.28 260.168 14.528C260.168 14.76 260.092 14.948 259.94 15.092C259.796 15.236 259.596 15.308 259.34 15.308ZM264.708 23.12C264.092 23.12 263.54 22.98 263.052 22.7C262.572 22.412 262.192 22.024 261.912 21.536C261.632 21.04 261.492 20.476 261.492 19.844C261.492 19.212 261.632 18.652 261.912 18.164C262.192 17.668 262.572 17.28 263.052 17C263.54 16.712 264.092 16.568 264.708 16.568C265.316 16.568 265.86 16.712 266.34 17C266.828 17.28 267.212 17.668 267.492 18.164C267.772 18.652 267.912 19.212 267.912 19.844C267.912 20.476 267.772 21.04 267.492 21.536C267.212 22.024 266.828 22.412 266.34 22.7C265.86 22.98 265.316 23.12 264.708 23.12ZM264.708 21.992C265.084 21.992 265.42 21.9 265.716 21.716C266.012 21.524 266.244 21.268 266.412 20.948C266.58 20.62 266.66 20.252 266.652 19.844C266.66 19.428 266.58 19.06 266.412 18.74C266.244 18.412 266.012 18.156 265.716 17.972C265.42 17.788 265.084 17.696 264.708 17.696C264.332 17.696 263.992 17.792 263.688 17.984C263.392 18.168 263.16 18.424 262.992 18.752C262.824 19.072 262.744 19.436 262.752 19.844C262.744 20.252 262.824 20.62 262.992 20.948C263.16 21.268 263.392 21.524 263.688 21.716C263.992 21.9 264.332 21.992 264.708 21.992ZM269.259 23V16.7H270.495V17.996L270.279 18.14C270.359 17.86 270.515 17.604 270.747 17.372C270.979 17.132 271.255 16.94 271.575 16.796C271.895 16.644 272.223 16.568 272.559 16.568C273.039 16.568 273.439 16.664 273.759 16.856C274.079 17.04 274.319 17.324 274.479 17.708C274.639 18.092 274.719 18.576 274.719 19.16V23H273.483V19.244C273.483 18.884 273.435 18.588 273.339 18.356C273.243 18.116 273.095 17.944 272.895 17.84C272.695 17.728 272.447 17.68 272.151 17.696C271.911 17.696 271.691 17.736 271.491 17.816C271.291 17.888 271.115 17.992 270.963 18.128C270.819 18.264 270.703 18.424 270.615 18.608C270.535 18.784 270.495 18.976 270.495 19.184V23H269.883C269.779 23 269.675 23 269.571 23C269.467 23 269.363 23 269.259 23ZM282.375 25.232C281.399 24.624 280.655 23.864 280.143 22.952C279.631 22.04 279.375 21.024 279.375 19.904C279.375 18.792 279.631 17.78 280.143 16.868C280.663 15.948 281.411 15.184 282.387 14.576L283.047 15.32C282.231 15.888 281.607 16.568 281.175 17.36C280.751 18.144 280.539 18.992 280.539 19.904C280.539 20.816 280.751 21.668 281.175 22.46C281.607 23.244 282.231 23.92 283.047 24.488L282.375 25.232ZM286.781 23.12C286.213 23.12 285.705 23.004 285.257 22.772C284.809 22.54 284.457 22.212 284.201 21.788C283.953 21.364 283.829 20.868 283.829 20.3C283.829 19.788 283.913 19.344 284.081 18.968C284.257 18.584 284.505 18.26 284.825 17.996C285.153 17.724 285.545 17.5 286.001 17.324C285.817 17.204 285.637 17.072 285.461 16.928C285.285 16.784 285.141 16.608 285.029 16.4C284.917 16.184 284.861 15.924 284.861 15.62C284.861 15.332 284.941 15.052 285.101 14.78C285.261 14.5 285.513 14.272 285.857 14.096C286.201 13.912 286.645 13.82 287.189 13.82C287.589 13.82 287.937 13.864 288.233 13.952C288.529 14.04 288.777 14.144 288.977 14.264C289.185 14.376 289.337 14.476 289.433 14.564L288.977 15.392C288.729 15.2 288.453 15.036 288.149 14.9C287.853 14.756 287.529 14.684 287.177 14.684C286.841 14.684 286.577 14.732 286.385 14.828C286.201 14.924 286.073 15.044 286.001 15.188C285.929 15.324 285.893 15.456 285.893 15.584C285.893 15.72 285.925 15.856 285.989 15.992C286.053 16.128 286.181 16.276 286.373 16.436C286.573 16.588 286.869 16.768 287.261 16.976C287.973 17.352 288.501 17.724 288.845 18.092C289.189 18.452 289.417 18.808 289.529 19.16C289.641 19.504 289.697 19.844 289.697 20.18C289.697 20.86 289.561 21.416 289.289 21.848C289.017 22.28 288.657 22.6 288.209 22.808C287.769 23.016 287.293 23.12 286.781 23.12ZM286.805 22.256C287.205 22.256 287.541 22.168 287.813 21.992C288.093 21.816 288.305 21.572 288.449 21.26C288.593 20.948 288.665 20.596 288.665 20.204C288.665 19.812 288.593 19.464 288.449 19.16C288.305 18.856 288.097 18.588 287.825 18.356C287.561 18.124 287.249 17.924 286.889 17.756C286.585 17.86 286.309 17.984 286.061 18.128C285.821 18.272 285.613 18.444 285.437 18.644C285.269 18.836 285.137 19.064 285.041 19.328C284.953 19.584 284.909 19.876 284.909 20.204C284.909 20.612 284.985 20.972 285.137 21.284C285.297 21.588 285.517 21.828 285.797 22.004C286.085 22.172 286.421 22.256 286.805 22.256ZM291.244 25.232L290.584 24.488C291.4 23.92 292.02 23.244 292.444 22.46C292.876 21.668 293.092 20.816 293.092 19.904C293.092 18.992 292.876 18.144 292.444 17.36C292.02 16.568 291.4 15.888 290.584 15.32L291.256 14.576C292.232 15.184 292.976 15.944 293.488 16.856C294 17.768 294.256 18.784 294.256 19.904C294.256 21.016 293.996 22.032 293.476 22.952C292.964 23.864 292.22 24.624 291.244 25.232Z" fill="#008800"/>
<path d="M1.40061 12V3.6H4.90461C5.44061 3.6 5.89261 3.68 6.26061 3.84C6.62861 4 6.90461 4.24 7.08861 4.56C7.28061 4.872 7.37661 5.256 7.37661 5.712C7.37661 6.168 7.24861 6.556 6.99261 6.876C6.74461 7.196 6.39661 7.416 5.94861 7.536V7.296C6.32461 7.376 6.65261 7.52 6.93261 7.728C7.21261 7.928 7.42861 8.18 7.58061 8.484C7.74061 8.788 7.82061 9.136 7.82061 9.528C7.82061 9.928 7.75661 10.284 7.62861 10.596C7.50861 10.9 7.32461 11.156 7.07661 11.364C6.83661 11.572 6.54461 11.732 6.20061 11.844C5.85661 11.948 5.46461 12 5.02461 12H1.40061ZM2.69661 10.752H4.95261C5.28061 10.752 5.55661 10.704 5.78061 10.608C6.01261 10.512 6.18861 10.372 6.30861 10.188C6.43661 9.996 6.50061 9.768 6.50061 9.504C6.50061 9.256 6.43261 9.044 6.29661 8.868C6.16861 8.692 5.98461 8.56 5.74461 8.472C5.50461 8.376 5.22061 8.328 4.89261 8.328H2.69661V10.752ZM2.69661 7.08H4.83261C5.07261 7.08 5.28461 7.032 5.46861 6.936C5.66061 6.84 5.80861 6.708 5.91261 6.54C6.02461 6.372 6.08061 6.18 6.08061 5.964C6.08061 5.604 5.96061 5.328 5.72061 5.136C5.48061 4.944 5.13661 4.848 4.68861 4.848H2.69661V7.08ZM11.6689 12.12C11.1489 12.12 10.6729 11.976 10.2409 11.688C9.81686 11.4 9.47686 11.008 9.22086 10.512C8.96486 10.016 8.83686 9.456 8.83686 8.832C8.83686 8.2 8.96486 7.64 9.22086 7.152C9.48486 6.656 9.83686 6.268 10.2769 5.988C10.7249 5.708 11.2249 5.568 11.7769 5.568C12.1049 5.568 12.4049 5.616 12.6769 5.712C12.9489 5.808 13.1849 5.944 13.3849 6.12C13.5929 6.288 13.7609 6.484 13.8889 6.708C14.0249 6.932 14.1089 7.172 14.1409 7.428L13.8649 7.332V5.7H15.1129V12H13.8649V10.5L14.1529 10.416C14.1049 10.632 14.0049 10.844 13.8529 11.052C13.7089 11.252 13.5209 11.432 13.2889 11.592C13.0649 11.752 12.8129 11.88 12.5329 11.976C12.2609 12.072 11.9729 12.12 11.6689 12.12ZM11.9929 10.98C12.3689 10.98 12.7009 10.888 12.9889 10.704C13.2769 10.52 13.5009 10.268 13.6609 9.948C13.8289 9.62 13.9129 9.248 13.9129 8.832C13.9129 8.424 13.8289 8.06 13.6609 7.74C13.5009 7.42 13.2769 7.168 12.9889 6.984C12.7009 6.8 12.3689 6.708 11.9929 6.708C11.6249 6.708 11.2969 6.8 11.0089 6.984C10.7289 7.168 10.5049 7.42 10.3369 7.74C10.1769 8.06 10.0969 8.424 10.0969 8.832C10.0969 9.248 10.1769 9.62 10.3369 9.948C10.5049 10.268 10.7289 10.52 11.0089 10.704C11.2969 10.888 11.6249 10.98 11.9929 10.98ZM16.8386 12V5.7H18.0866V7.68L17.9666 7.2C18.0546 6.896 18.2026 6.62 18.4106 6.372C18.6266 6.124 18.8706 5.928 19.1426 5.784C19.4226 5.64 19.7106 5.568 20.0066 5.568C20.1426 5.568 20.2706 5.58 20.3906 5.604C20.5186 5.628 20.6186 5.656 20.6906 5.688L20.3666 7.032C20.2706 6.992 20.1626 6.96 20.0426 6.936C19.9306 6.904 19.8186 6.888 19.7066 6.888C19.4906 6.888 19.2826 6.932 19.0826 7.02C18.8906 7.1 18.7186 7.216 18.5666 7.368C18.4226 7.512 18.3066 7.684 18.2186 7.884C18.1306 8.076 18.0866 8.288 18.0866 8.52V12H16.8386ZM27.1417 12.12C26.6137 12.12 26.1377 12.028 25.7137 11.844C25.2897 11.66 24.9377 11.388 24.6577 11.028L25.4977 10.308C25.7377 10.588 25.9977 10.792 26.2777 10.92C26.5657 11.04 26.8897 11.1 27.2497 11.1C27.3937 11.1 27.5257 11.084 27.6457 11.052C27.7737 11.012 27.8817 10.956 27.9697 10.884C28.0657 10.812 28.1377 10.728 28.1857 10.632C28.2337 10.528 28.2577 10.416 28.2577 10.296C28.2577 10.088 28.1817 9.92 28.0297 9.792C27.9497 9.736 27.8217 9.676 27.6457 9.612C27.4777 9.54 27.2577 9.468 26.9857 9.396C26.5217 9.276 26.1417 9.14 25.8457 8.988C25.5497 8.836 25.3217 8.664 25.1617 8.472C25.0417 8.32 24.9537 8.156 24.8977 7.98C24.8417 7.796 24.8137 7.596 24.8137 7.38C24.8137 7.116 24.8697 6.876 24.9817 6.66C25.1017 6.436 25.2617 6.244 25.4617 6.084C25.6697 5.916 25.9097 5.788 26.1817 5.7C26.4617 5.612 26.7577 5.568 27.0697 5.568C27.3657 5.568 27.6577 5.608 27.9457 5.688C28.2417 5.768 28.5137 5.884 28.7617 6.036C29.0097 6.188 29.2177 6.368 29.3857 6.576L28.6777 7.356C28.5257 7.204 28.3577 7.072 28.1737 6.96C27.9977 6.84 27.8177 6.748 27.6337 6.684C27.4497 6.62 27.2817 6.588 27.1297 6.588C26.9617 6.588 26.8097 6.604 26.6737 6.636C26.5377 6.668 26.4217 6.716 26.3257 6.78C26.2377 6.844 26.1697 6.924 26.1217 7.02C26.0737 7.116 26.0497 7.224 26.0497 7.344C26.0577 7.448 26.0817 7.548 26.1217 7.644C26.1697 7.732 26.2337 7.808 26.3137 7.872C26.4017 7.936 26.5337 8.004 26.7097 8.076C26.8857 8.148 27.1097 8.216 27.3817 8.28C27.7817 8.384 28.1097 8.5 28.3657 8.628C28.6297 8.748 28.8377 8.888 28.9897 9.048C29.1497 9.2 29.2617 9.376 29.3257 9.576C29.3897 9.776 29.4217 10 29.4217 10.248C29.4217 10.608 29.3177 10.932 29.1097 11.22C28.9097 11.5 28.6377 11.72 28.2937 11.88C27.9497 12.04 27.5657 12.12 27.1417 12.12ZM32.9919 12.12C32.5439 12.12 32.1519 12.016 31.8159 11.808C31.4879 11.6 31.2319 11.308 31.0479 10.932C30.8719 10.556 30.7839 10.108 30.7839 9.588V5.7H32.0199V9.252C32.0199 9.62 32.0759 9.94 32.1879 10.212C32.3079 10.476 32.4759 10.68 32.6919 10.824C32.9159 10.968 33.1839 11.04 33.4959 11.04C33.7279 11.04 33.9399 11.004 34.1319 10.932C34.3239 10.852 34.4879 10.744 34.6239 10.608C34.7679 10.472 34.8799 10.308 34.9599 10.116C35.0399 9.924 35.0799 9.716 35.0799 9.492V5.7H36.3159V12H35.0799V10.68L35.2959 10.536C35.1999 10.832 35.0359 11.1 34.8039 11.34C34.5799 11.58 34.3119 11.772 33.9999 11.916C33.6879 12.052 33.3519 12.12 32.9919 12.12ZM38.0495 14.64V5.7H39.2975V7.14L39.1055 7.032C39.1535 6.792 39.2895 6.564 39.5135 6.348C39.7375 6.124 40.0095 5.944 40.3295 5.808C40.6575 5.664 40.9935 5.592 41.3375 5.592C41.9055 5.592 42.4095 5.732 42.8495 6.012C43.2895 6.292 43.6375 6.676 43.8935 7.164C44.1495 7.652 44.2775 8.212 44.2775 8.844C44.2775 9.468 44.1495 10.028 43.8935 10.524C43.6455 11.012 43.3015 11.4 42.8615 11.688C42.4215 11.968 41.9255 12.108 41.3735 12.108C41.0055 12.108 40.6495 12.036 40.3055 11.892C39.9615 11.74 39.6695 11.548 39.4295 11.316C39.1895 11.084 39.0415 10.844 38.9855 10.596L39.2975 10.428V14.64H38.0495ZM41.1695 10.968C41.5375 10.968 41.8655 10.876 42.1535 10.692C42.4415 10.508 42.6695 10.256 42.8375 9.936C43.0055 9.616 43.0895 9.252 43.0895 8.844C43.0895 8.436 43.0055 8.076 42.8375 7.764C42.6775 7.444 42.4535 7.192 42.1655 7.008C41.8775 6.824 41.5455 6.732 41.1695 6.732C40.7935 6.732 40.4615 6.824 40.1735 7.008C39.8855 7.184 39.6575 7.432 39.4895 7.752C39.3215 8.072 39.2375 8.436 39.2375 8.844C39.2375 9.252 39.3215 9.616 39.4895 9.936C39.6575 10.256 39.8855 10.508 40.1735 10.692C40.4615 10.876 40.7935 10.968 41.1695 10.968ZM45.6199 14.64V5.7H46.8679V7.14L46.6759 7.032C46.7239 6.792 46.8599 6.564 47.0839 6.348C47.3079 6.124 47.5799 5.944 47.8999 5.808C48.2279 5.664 48.5639 5.592 48.9079 5.592C49.4759 5.592 49.9799 5.732 50.4199 6.012C50.8599 6.292 51.2079 6.676 51.4639 7.164C51.7199 7.652 51.8479 8.212 51.8479 8.844C51.8479 9.468 51.7199 10.028 51.4639 10.524C51.2159 11.012 50.8719 11.4 50.4319 11.688C49.9919 11.968 49.4959 12.108 48.9439 12.108C48.5759 12.108 48.2199 12.036 47.8759 11.892C47.5319 11.74 47.2399 11.548 46.9999 11.316C46.7599 11.084 46.6119 10.844 46.5559 10.596L46.8679 10.428V14.64H45.6199ZM48.7399 10.968C49.1079 10.968 49.4359 10.876 49.7239 10.692C50.0119 10.508 50.2399 10.256 50.4079 9.936C50.5759 9.616 50.6599 9.252 50.6599 8.844C50.6599 8.436 50.5759 8.076 50.4079 7.764C50.2479 7.444 50.0239 7.192 49.7359 7.008C49.4479 6.824 49.1159 6.732 48.7399 6.732C48.3639 6.732 48.0319 6.824 47.7439 7.008C47.4559 7.184 47.2279 7.432 47.0599 7.752C46.8919 8.072 46.8079 8.436 46.8079 8.844C46.8079 9.252 46.8919 9.616 47.0599 9.936C47.2279 10.256 47.4559 10.508 47.7439 10.692C48.0319 10.876 48.3639 10.968 48.7399 10.968ZM56.0222 12.12C55.4062 12.12 54.8542 11.98 54.3662 11.7C53.8862 11.412 53.5062 11.024 53.2262 10.536C52.9462 10.04 52.8062 9.476 52.8062 8.844C52.8062 8.212 52.9462 7.652 53.2262 7.164C53.5062 6.668 53.8862 6.28 54.3662 6C54.8542 5.712 55.4062 5.568 56.0222 5.568C56.6302 5.568 57.1742 5.712 57.6542 6C58.1422 6.28 58.5262 6.668 58.8062 7.164C59.0862 7.652 59.2262 8.212 59.2262 8.844C59.2262 9.476 59.0862 10.04 58.8062 10.536C58.5262 11.024 58.1422 11.412 57.6542 11.7C57.1742 11.98 56.6302 12.12 56.0222 12.12ZM56.0222 10.992C56.3982 10.992 56.7342 10.9 57.0302 10.716C57.3262 10.524 57.5582 10.268 57.7262 9.948C57.8942 9.62 57.9742 9.252 57.9662 8.844C57.9742 8.428 57.8942 8.06 57.7262 7.74C57.5582 7.412 57.3262 7.156 57.0302 6.972C56.7342 6.788 56.3982 6.696 56.0222 6.696C55.6462 6.696 55.3062 6.792 55.0022 6.984C54.7062 7.168 54.4742 7.424 54.3062 7.752C54.1382 8.072 54.0582 8.436 54.0662 8.844C54.0582 9.252 54.1382 9.62 54.3062 9.948C54.4742 10.268 54.7062 10.524 55.0022 10.716C55.3062 10.9 55.6462 10.992 56.0222 10.992ZM60.573 12V5.7H61.821V7.68L61.701 7.2C61.789 6.896 61.937 6.62 62.145 6.372C62.361 6.124 62.605 5.928 62.877 5.784C63.157 5.64 63.445 5.568 63.741 5.568C63.877 5.568 64.005 5.58 64.125 5.604C64.253 5.628 64.353 5.656 64.425 5.688L64.101 7.032C64.005 6.992 63.897 6.96 63.777 6.936C63.665 6.904 63.553 6.888 63.441 6.888C63.225 6.888 63.017 6.932 62.817 7.02C62.625 7.1 62.453 7.216 62.301 7.368C62.157 7.512 62.041 7.684 61.953 7.884C61.865 8.076 61.821 8.288 61.821 8.52V12H60.573ZM66.4272 12V4.092H67.6632V12H66.4272ZM65.1192 6.9V5.7H69.1272V6.9H65.1192ZM73.1341 12.12C72.4861 12.12 71.9101 11.984 71.4061 11.712C70.9101 11.432 70.5181 11.052 70.2301 10.572C69.9501 10.092 69.8101 9.54 69.8101 8.916C69.8101 8.42 69.8901 7.968 70.0501 7.56C70.2101 7.152 70.4301 6.8 70.7101 6.504C70.9981 6.2 71.3381 5.968 71.7301 5.808C72.1301 5.64 72.5621 5.556 73.0261 5.556C73.4341 5.556 73.8141 5.636 74.1661 5.796C74.5181 5.948 74.8221 6.16 75.0781 6.432C75.3421 6.704 75.5421 7.028 75.6781 7.404C75.8221 7.772 75.8901 8.176 75.8821 8.616L75.8701 9.144H70.7221L70.4461 8.16H74.8021L74.6221 8.364V8.076C74.5981 7.812 74.5101 7.576 74.3581 7.368C74.2061 7.16 74.0141 6.996 73.7821 6.876C73.5501 6.756 73.2981 6.696 73.0261 6.696C72.5941 6.696 72.2301 6.78 71.9341 6.948C71.6381 7.108 71.4141 7.348 71.2621 7.668C71.1101 7.98 71.0341 8.368 71.0341 8.832C71.0341 9.272 71.1261 9.656 71.3101 9.984C71.4941 10.304 71.7541 10.552 72.0901 10.728C72.4261 10.904 72.8141 10.992 73.2541 10.992C73.5661 10.992 73.8541 10.94 74.1181 10.836C74.3901 10.732 74.6821 10.544 74.9941 10.272L75.6181 11.148C75.4261 11.34 75.1901 11.508 74.9101 11.652C74.6381 11.796 74.3461 11.912 74.0341 12C73.7301 12.08 73.4301 12.12 73.1341 12.12ZM79.8533 12.12C79.2773 12.12 78.7613 11.98 78.3053 11.7C77.8573 11.412 77.5013 11.024 77.2373 10.536C76.9733 10.04 76.8413 9.476 76.8413 8.844C76.8413 8.212 76.9693 7.652 77.2253 7.164C77.4893 6.668 77.8453 6.28 78.2933 6C78.7413 5.712 79.2493 5.568 79.8173 5.568C80.1293 5.568 80.4293 5.62 80.7173 5.724C81.0133 5.82 81.2773 5.956 81.5093 6.132C81.7413 6.3 81.9213 6.488 82.0493 6.696C82.1853 6.896 82.2533 7.1 82.2533 7.308L81.8933 7.332V3.12H83.1293V12H81.8933V10.5H82.1333C82.1333 10.692 82.0693 10.884 81.9413 11.076C81.8133 11.26 81.6413 11.432 81.4253 11.592C81.2173 11.752 80.9733 11.88 80.6933 11.976C80.4213 12.072 80.1413 12.12 79.8533 12.12ZM80.0213 11.052C80.3973 11.052 80.7293 10.956 81.0173 10.764C81.3053 10.572 81.5293 10.312 81.6893 9.984C81.8573 9.648 81.9413 9.268 81.9413 8.844C81.9413 8.42 81.8573 8.044 81.6893 7.716C81.5293 7.38 81.3053 7.116 81.0173 6.924C80.7293 6.732 80.3973 6.636 80.0213 6.636C79.6453 6.636 79.3133 6.732 79.0253 6.924C78.7373 7.116 78.5093 7.38 78.3413 7.716C78.1813 8.044 78.1013 8.42 78.1013 8.844C78.1013 9.268 78.1813 9.648 78.3413 9.984C78.5093 10.312 78.7373 10.572 79.0253 10.764C79.3133 10.956 79.6453 11.052 80.0213 11.052ZM91.0261 12.12C90.4101 12.12 89.8581 11.98 89.3701 11.7C88.8901 11.412 88.5101 11.024 88.2301 10.536C87.9501 10.04 87.8101 9.476 87.8101 8.844C87.8101 8.212 87.9501 7.652 88.2301 7.164C88.5101 6.668 88.8901 6.28 89.3701 6C89.8581 5.712 90.4101 5.568 91.0261 5.568C91.6341 5.568 92.1781 5.712 92.6581 6C93.1461 6.28 93.5301 6.668 93.8101 7.164C94.0901 7.652 94.2301 8.212 94.2301 8.844C94.2301 9.476 94.0901 10.04 93.8101 10.536C93.5301 11.024 93.1461 11.412 92.6581 11.7C92.1781 11.98 91.6341 12.12 91.0261 12.12ZM91.0261 10.992C91.4021 10.992 91.7381 10.9 92.0341 10.716C92.3301 10.524 92.5621 10.268 92.7301 9.948C92.8981 9.62 92.9781 9.252 92.9701 8.844C92.9781 8.428 92.8981 8.06 92.7301 7.74C92.5621 7.412 92.3301 7.156 92.0341 6.972C91.7381 6.788 91.4021 6.696 91.0261 6.696C90.6501 6.696 90.3101 6.792 90.0061 6.984C89.7101 7.168 89.4781 7.424 89.3101 7.752C89.1421 8.072 89.0621 8.436 89.0701 8.844C89.0621 9.252 89.1421 9.62 89.3101 9.948C89.4781 10.268 89.7101 10.524 90.0061 10.716C90.3101 10.9 90.6501 10.992 91.0261 10.992ZM95.5769 12V5.7H96.8129V6.996L96.5969 7.14C96.6769 6.86 96.8329 6.604 97.0649 6.372C97.2969 6.132 97.5729 5.94 97.8929 5.796C98.2129 5.644 98.5409 5.568 98.8769 5.568C99.3569 5.568 99.7569 5.664 100.077 5.856C100.397 6.04 100.637 6.324 100.797 6.708C100.957 7.092 101.037 7.576 101.037 8.16V12H99.8009V8.244C99.8009 7.884 99.7529 7.588 99.6569 7.356C99.5609 7.116 99.4129 6.944 99.2129 6.84C99.0129 6.728 98.7649 6.68 98.4689 6.696C98.2289 6.696 98.0089 6.736 97.8089 6.816C97.6089 6.888 97.4329 6.992 97.2809 7.128C97.1369 7.264 97.0209 7.424 96.9329 7.608C96.8529 7.784 96.8129 7.976 96.8129 8.184V12H96.2009C96.0969 12 95.9929 12 95.8889 12C95.7849 12 95.6809 12 95.5769 12ZM109.389 12.12C109.117 12.12 108.845 12.076 108.573 11.988C108.309 11.9 108.065 11.784 107.841 11.64C107.625 11.488 107.441 11.324 107.289 11.148C107.145 10.964 107.049 10.78 107.001 10.596L107.313 10.428V11.964H106.077V3.12H107.313V7.14L107.121 7.032C107.161 6.848 107.249 6.672 107.385 6.504C107.521 6.328 107.693 6.172 107.901 6.036C108.117 5.892 108.349 5.78 108.597 5.7C108.845 5.612 109.097 5.568 109.353 5.568C109.921 5.568 110.425 5.708 110.865 5.988C111.305 6.268 111.653 6.656 111.909 7.152C112.165 7.64 112.293 8.2 112.293 8.832C112.293 9.464 112.165 10.028 111.909 10.524C111.661 11.02 111.317 11.412 110.877 11.7C110.437 11.98 109.941 12.12 109.389 12.12ZM109.185 10.992C109.553 10.992 109.881 10.9 110.169 10.716C110.457 10.524 110.685 10.268 110.853 9.948C111.021 9.62 111.105 9.248 111.105 8.832C111.105 8.424 111.021 8.06 110.853 7.74C110.693 7.412 110.469 7.156 110.181 6.972C109.893 6.788 109.561 6.696 109.185 6.696C108.809 6.696 108.477 6.788 108.189 6.972C107.901 7.156 107.673 7.412 107.505 7.74C107.337 8.06 107.253 8.424 107.253 8.832C107.253 9.248 107.337 9.62 107.505 9.948C107.673 10.268 107.901 10.524 108.189 10.716C108.477 10.9 108.809 10.992 109.185 10.992ZM116.467 12.12C115.851 12.12 115.299 11.98 114.811 11.7C114.331 11.412 113.951 11.024 113.671 10.536C113.391 10.04 113.251 9.476 113.251 8.844C113.251 8.212 113.391 7.652 113.671 7.164C113.951 6.668 114.331 6.28 114.811 6C115.299 5.712 115.851 5.568 116.467 5.568C117.075 5.568 117.619 5.712 118.099 6C118.587 6.28 118.971 6.668 119.251 7.164C119.531 7.652 119.671 8.212 119.671 8.844C119.671 9.476 119.531 10.04 119.251 10.536C118.971 11.024 118.587 11.412 118.099 11.7C117.619 11.98 117.075 12.12 116.467 12.12ZM116.467 10.992C116.843 10.992 117.179 10.9 117.475 10.716C117.771 10.524 118.003 10.268 118.171 9.948C118.339 9.62 118.419 9.252 118.411 8.844C118.419 8.428 118.339 8.06 118.171 7.74C118.003 7.412 117.771 7.156 117.475 6.972C117.179 6.788 116.843 6.696 116.467 6.696C116.091 6.696 115.751 6.792 115.447 6.984C115.151 7.168 114.919 7.424 114.751 7.752C114.583 8.072 114.503 8.436 114.511 8.844C114.503 9.252 114.583 9.62 114.751 9.948C114.919 10.268 115.151 10.524 115.447 10.716C115.751 10.9 116.091 10.992 116.467 10.992ZM121.798 12V4.092H123.034V12H121.798ZM120.49 6.9V5.7H124.498V6.9H120.49ZM125.624 12V3.12H126.86V6.996L126.644 7.14C126.724 6.86 126.88 6.604 127.112 6.372C127.344 6.132 127.62 5.94 127.94 5.796C128.26 5.644 128.588 5.568 128.924 5.568C129.404 5.568 129.804 5.664 130.124 5.856C130.444 6.04 130.684 6.324 130.844 6.708C131.004 7.092 131.084 7.576 131.084 8.16V12H129.848V8.244C129.848 7.884 129.8 7.588 129.704 7.356C129.608 7.116 129.46 6.944 129.26 6.84C129.06 6.728 128.812 6.68 128.516 6.696C128.276 6.696 128.056 6.736 127.856 6.816C127.656 6.888 127.48 6.992 127.328 7.128C127.184 7.264 127.068 7.424 126.98 7.608C126.9 7.784 126.86 7.976 126.86 8.184V12H126.248C126.144 12 126.04 12 125.936 12C125.832 12 125.728 12 125.624 12ZM139.064 12.12C138.416 12.12 137.84 11.984 137.336 11.712C136.84 11.432 136.448 11.052 136.16 10.572C135.88 10.092 135.74 9.54 135.74 8.916C135.74 8.42 135.82 7.968 135.98 7.56C136.14 7.152 136.36 6.8 136.64 6.504C136.928 6.2 137.268 5.968 137.66 5.808C138.06 5.64 138.492 5.556 138.956 5.556C139.364 5.556 139.744 5.636 140.096 5.796C140.448 5.948 140.752 6.16 141.008 6.432C141.272 6.704 141.472 7.028 141.608 7.404C141.752 7.772 141.82 8.176 141.812 8.616L141.8 9.144H136.652L136.376 8.16H140.732L140.552 8.364V8.076C140.528 7.812 140.44 7.576 140.288 7.368C140.136 7.16 139.944 6.996 139.712 6.876C139.48 6.756 139.228 6.696 138.956 6.696C138.524 6.696 138.16 6.78 137.864 6.948C137.568 7.108 137.344 7.348 137.192 7.668C137.04 7.98 136.964 8.368 136.964 8.832C136.964 9.272 137.056 9.656 137.24 9.984C137.424 10.304 137.684 10.552 138.02 10.728C138.356 10.904 138.744 10.992 139.184 10.992C139.496 10.992 139.784 10.94 140.048 10.836C140.32 10.732 140.612 10.544 140.924 10.272L141.548 11.148C141.356 11.34 141.12 11.508 140.84 11.652C140.568 11.796 140.276 11.912 139.964 12C139.66 12.08 139.36 12.12 139.064 12.12ZM143.155 12V5.7H144.391V6.996L144.175 7.14C144.255 6.86 144.411 6.604 144.643 6.372C144.875 6.132 145.151 5.94 145.471 5.796C145.791 5.644 146.119 5.568 146.455 5.568C146.935 5.568 147.335 5.664 147.655 5.856C147.975 6.04 148.215 6.324 148.375 6.708C148.535 7.092 148.615 7.576 148.615 8.16V12H147.379V8.244C147.379 7.884 147.331 7.588 147.235 7.356C147.139 7.116 146.991 6.944 146.791 6.84C146.591 6.728 146.343 6.68 146.047 6.696C145.807 6.696 145.587 6.736 145.387 6.816C145.187 6.888 145.011 6.992 144.859 7.128C144.715 7.264 144.599 7.424 144.511 7.608C144.431 7.784 144.391 7.976 144.391 8.184V12H143.779C143.675 12 143.571 12 143.467 12C143.363 12 143.259 12 143.155 12ZM152.92 12.12C152.344 12.12 151.828 11.98 151.372 11.7C150.924 11.412 150.568 11.024 150.304 10.536C150.04 10.04 149.908 9.476 149.908 8.844C149.908 8.212 150.036 7.652 150.292 7.164C150.556 6.668 150.912 6.28 151.36 6C151.808 5.712 152.316 5.568 152.884 5.568C153.196 5.568 153.496 5.62 153.784 5.724C154.08 5.82 154.344 5.956 154.576 6.132C154.808 6.3 154.988 6.488 155.116 6.696C155.252 6.896 155.32 7.1 155.32 7.308L154.96 7.332V3.12H156.196V12H154.96V10.5H155.2C155.2 10.692 155.136 10.884 155.008 11.076C154.88 11.26 154.708 11.432 154.492 11.592C154.284 11.752 154.04 11.88 153.76 11.976C153.488 12.072 153.208 12.12 152.92 12.12ZM153.088 11.052C153.464 11.052 153.796 10.956 154.084 10.764C154.372 10.572 154.596 10.312 154.756 9.984C154.924 9.648 155.008 9.268 155.008 8.844C155.008 8.42 154.924 8.044 154.756 7.716C154.596 7.38 154.372 7.116 154.084 6.924C153.796 6.732 153.464 6.636 153.088 6.636C152.712 6.636 152.38 6.732 152.092 6.924C151.804 7.116 151.576 7.38 151.408 7.716C151.248 8.044 151.168 8.42 151.168 8.844C151.168 9.268 151.248 9.648 151.408 9.984C151.576 10.312 151.804 10.572 152.092 10.764C152.38 10.956 152.712 11.052 153.088 11.052ZM159.997 12.12C159.469 12.12 158.993 12.028 158.569 11.844C158.145 11.66 157.793 11.388 157.513 11.028L158.353 10.308C158.593 10.588 158.853 10.792 159.133 10.92C159.421 11.04 159.745 11.1 160.105 11.1C160.249 11.1 160.381 11.084 160.501 11.052C160.629 11.012 160.737 10.956 160.825 10.884C160.921 10.812 160.993 10.728 161.041 10.632C161.089 10.528 161.113 10.416 161.113 10.296C161.113 10.088 161.037 9.92 160.885 9.792C160.805 9.736 160.677 9.676 160.501 9.612C160.333 9.54 160.113 9.468 159.841 9.396C159.377 9.276 158.997 9.14 158.701 8.988C158.405 8.836 158.177 8.664 158.017 8.472C157.897 8.32 157.809 8.156 157.753 7.98C157.697 7.796 157.669 7.596 157.669 7.38C157.669 7.116 157.725 6.876 157.837 6.66C157.957 6.436 158.117 6.244 158.317 6.084C158.525 5.916 158.765 5.788 159.037 5.7C159.317 5.612 159.613 5.568 159.925 5.568C160.221 5.568 160.513 5.608 160.801 5.688C161.097 5.768 161.369 5.884 161.617 6.036C161.865 6.188 162.073 6.368 162.241 6.576L161.533 7.356C161.381 7.204 161.213 7.072 161.029 6.96C160.853 6.84 160.673 6.748 160.489 6.684C160.305 6.62 160.137 6.588 159.985 6.588C159.817 6.588 159.665 6.604 159.529 6.636C159.393 6.668 159.277 6.716 159.181 6.78C159.093 6.844 159.025 6.924 158.977 7.02C158.929 7.116 158.905 7.224 158.905 7.344C158.913 7.448 158.937 7.548 158.977 7.644C159.025 7.732 159.089 7.808 159.169 7.872C159.257 7.936 159.389 8.004 159.565 8.076C159.741 8.148 159.965 8.216 160.237 8.28C160.637 8.384 160.965 8.5 161.221 8.628C161.485 8.748 161.693 8.888 161.845 9.048C162.005 9.2 162.117 9.376 162.181 9.576C162.245 9.776 162.277 10 162.277 10.248C162.277 10.608 162.173 10.932 161.965 11.22C161.765 11.5 161.493 11.72 161.149 11.88C160.805 12.04 160.421 12.12 159.997 12.12Z" fill="black"/>
<path d="M122.176 105V96.6H123.472V103.752H127.408V105H122.176ZM131.645 105.12C131.029 105.12 130.477 104.98 129.989 104.7C129.509 104.412 129.129 104.024 128.849 103.536C128.569 103.04 128.429 102.476 128.429 101.844C128.429 101.212 128.569 100.652 128.849 100.164C129.129 99.668 129.509 99.28 129.989 99C130.477 98.712 131.029 98.568 131.645 98.568C132.253 98.568 132.797 98.712 133.277 99C133.765 99.28 134.149 99.668 134.429 100.164C134.709 100.652 134.849 101.212 134.849 101.844C134.849 102.476 134.709 103.04 134.429 103.536C134.149 104.024 133.765 104.412 133.277 104.7C132.797 104.98 132.253 105.12 131.645 105.12ZM131.645 103.992C132.021 103.992 132.357 103.9 132.653 103.716C132.949 103.524 133.181 103.268 133.349 102.948C133.517 102.62 133.597 102.252 133.589 101.844C133.597 101.428 133.517 101.06 133.349 100.74C133.181 100.412 132.949 100.156 132.653 99.972C132.357 99.788 132.021 99.696 131.645 99.696C131.269 99.696 130.929 99.792 130.625 99.984C130.329 100.168 130.097 100.424 129.929 100.752C129.761 101.072 129.681 101.436 129.689 101.844C129.681 102.252 129.761 102.62 129.929 102.948C130.097 103.268 130.329 103.524 130.625 103.716C130.929 103.9 131.269 103.992 131.645 103.992ZM138.62 105.12C138.1 105.12 137.624 104.976 137.192 104.688C136.768 104.4 136.428 104.008 136.172 103.512C135.916 103.016 135.788 102.456 135.788 101.832C135.788 101.2 135.916 100.64 136.172 100.152C136.436 99.656 136.788 99.268 137.228 98.988C137.676 98.708 138.176 98.568 138.728 98.568C139.056 98.568 139.356 98.616 139.628 98.712C139.9 98.808 140.136 98.944 140.336 99.12C140.544 99.288 140.712 99.484 140.84 99.708C140.976 99.932 141.06 100.172 141.092 100.428L140.816 100.332V98.7H142.064V105H140.816V103.5L141.104 103.416C141.056 103.632 140.956 103.844 140.804 104.052C140.66 104.252 140.472 104.432 140.24 104.592C140.016 104.752 139.764 104.88 139.484 104.976C139.212 105.072 138.924 105.12 138.62 105.12ZM138.944 103.98C139.32 103.98 139.652 103.888 139.94 103.704C140.228 103.52 140.452 103.268 140.612 102.948C140.78 102.62 140.864 102.248 140.864 101.832C140.864 101.424 140.78 101.06 140.612 100.74C140.452 100.42 140.228 100.168 139.94 99.984C139.652 99.8 139.32 99.708 138.944 99.708C138.576 99.708 138.248 99.8 137.96 99.984C137.68 100.168 137.456 100.42 137.288 100.74C137.128 101.06 137.048 101.424 137.048 101.832C137.048 102.248 137.128 102.62 137.288 102.948C137.456 103.268 137.68 103.52 137.96 103.704C138.248 103.888 138.576 103.98 138.944 103.98ZM146.418 105.12C145.842 105.12 145.326 104.98 144.87 104.7C144.422 104.412 144.066 104.024 143.802 103.536C143.538 103.04 143.406 102.476 143.406 101.844C143.406 101.212 143.534 100.652 143.79 100.164C144.054 99.668 144.41 99.28 144.858 99C145.306 98.712 145.814 98.568 146.382 98.568C146.694 98.568 146.994 98.62 147.282 98.724C147.578 98.82 147.842 98.956 148.074 99.132C148.306 99.3 148.486 99.488 148.614 99.696C148.75 99.896 148.818 100.1 148.818 100.308L148.458 100.332V96.12H149.694V105H148.458V103.5H148.698C148.698 103.692 148.634 103.884 148.506 104.076C148.378 104.26 148.206 104.432 147.99 104.592C147.782 104.752 147.538 104.88 147.258 104.976C146.986 105.072 146.706 105.12 146.418 105.12ZM146.586 104.052C146.962 104.052 147.294 103.956 147.582 103.764C147.87 103.572 148.094 103.312 148.254 102.984C148.422 102.648 148.506 102.268 148.506 101.844C148.506 101.42 148.422 101.044 148.254 100.716C148.094 100.38 147.87 100.116 147.582 99.924C147.294 99.732 146.962 99.636 146.586 99.636C146.21 99.636 145.878 99.732 145.59 99.924C145.302 100.116 145.074 100.38 144.906 100.716C144.746 101.044 144.666 101.42 144.666 101.844C144.666 102.268 144.746 102.648 144.906 102.984C145.074 103.312 145.302 103.572 145.59 103.764C145.878 103.956 146.21 104.052 146.586 104.052ZM155.443 105V97.992C155.443 97.632 155.523 97.312 155.683 97.032C155.843 96.752 156.063 96.532 156.343 96.372C156.623 96.212 156.947 96.132 157.315 96.132C157.571 96.132 157.811 96.18 158.035 96.276C158.259 96.372 158.439 96.5 158.575 96.66L158.155 97.608C158.051 97.512 157.935 97.436 157.807 97.38C157.687 97.316 157.571 97.284 157.459 97.284C157.291 97.284 157.147 97.312 157.027 97.368C156.915 97.416 156.831 97.496 156.775 97.608C156.719 97.712 156.691 97.84 156.691 97.992V105H156.067C155.963 105 155.859 105 155.755 105C155.651 105 155.547 105 155.443 105ZM154.435 99.948V98.808H158.179V99.948H154.435ZM162.067 105.12C161.451 105.12 160.899 104.98 160.411 104.7C159.931 104.412 159.551 104.024 159.271 103.536C158.991 103.04 158.851 102.476 158.851 101.844C158.851 101.212 158.991 100.652 159.271 100.164C159.551 99.668 159.931 99.28 160.411 99C160.899 98.712 161.451 98.568 162.067 98.568C162.675 98.568 163.219 98.712 163.699 99C164.187 99.28 164.571 99.668 164.851 100.164C165.131 100.652 165.271 101.212 165.271 101.844C165.271 102.476 165.131 103.04 164.851 103.536C164.571 104.024 164.187 104.412 163.699 104.7C163.219 104.98 162.675 105.12 162.067 105.12ZM162.067 103.992C162.443 103.992 162.779 103.9 163.075 103.716C163.371 103.524 163.603 103.268 163.771 102.948C163.939 102.62 164.019 102.252 164.011 101.844C164.019 101.428 163.939 101.06 163.771 100.74C163.603 100.412 163.371 100.156 163.075 99.972C162.779 99.788 162.443 99.696 162.067 99.696C161.691 99.696 161.351 99.792 161.047 99.984C160.751 100.168 160.519 100.424 160.351 100.752C160.183 101.072 160.103 101.436 160.111 101.844C160.103 102.252 160.183 102.62 160.351 102.948C160.519 103.268 160.751 103.524 161.047 103.716C161.351 103.9 161.691 103.992 162.067 103.992ZM166.618 105V98.7H167.866V100.68L167.746 100.2C167.834 99.896 167.982 99.62 168.19 99.372C168.406 99.124 168.65 98.928 168.922 98.784C169.202 98.64 169.49 98.568 169.786 98.568C169.922 98.568 170.05 98.58 170.17 98.604C170.298 98.628 170.398 98.656 170.47 98.688L170.146 100.032C170.05 99.992 169.942 99.96 169.822 99.936C169.71 99.904 169.598 99.888 169.486 99.888C169.27 99.888 169.062 99.932 168.862 100.02C168.67 100.1 168.498 100.216 168.346 100.368C168.202 100.512 168.086 100.684 167.998 100.884C167.91 101.076 167.866 101.288 167.866 101.52V105H166.618ZM173.864 105.12C173.28 105.12 172.756 104.976 172.292 104.688C171.836 104.4 171.472 104.008 171.2 103.512C170.936 103.016 170.804 102.46 170.804 101.844C170.804 101.228 170.936 100.672 171.2 100.176C171.472 99.68 171.836 99.288 172.292 99C172.756 98.712 173.28 98.568 173.864 98.568C174.424 98.568 174.932 98.684 175.388 98.916C175.852 99.14 176.204 99.448 176.444 99.84L175.76 100.68C175.632 100.496 175.468 100.328 175.268 100.176C175.068 100.024 174.856 99.904 174.632 99.816C174.408 99.728 174.192 99.684 173.984 99.684C173.6 99.684 173.256 99.78 172.952 99.972C172.656 100.156 172.42 100.412 172.244 100.74C172.068 101.068 171.98 101.436 171.98 101.844C171.98 102.252 172.072 102.62 172.256 102.948C172.44 103.268 172.684 103.524 172.988 103.716C173.292 103.908 173.628 104.004 173.996 104.004C174.212 104.004 174.42 103.968 174.62 103.896C174.828 103.824 175.028 103.716 175.22 103.572C175.412 103.428 175.592 103.252 175.76 103.044L176.444 103.884C176.188 104.244 175.82 104.54 175.34 104.772C174.868 105.004 174.376 105.12 173.864 105.12ZM180.55 105.12C179.902 105.12 179.326 104.984 178.822 104.712C178.326 104.432 177.934 104.052 177.646 103.572C177.366 103.092 177.226 102.54 177.226 101.916C177.226 101.42 177.306 100.968 177.466 100.56C177.626 100.152 177.846 99.8 178.126 99.504C178.414 99.2 178.754 98.968 179.146 98.808C179.546 98.64 179.978 98.556 180.442 98.556C180.85 98.556 181.23 98.636 181.582 98.796C181.934 98.948 182.238 99.16 182.494 99.432C182.758 99.704 182.958 100.028 183.094 100.404C183.238 100.772 183.306 101.176 183.298 101.616L183.286 102.144H178.138L177.862 101.16H182.218L182.038 101.364V101.076C182.014 100.812 181.926 100.576 181.774 100.368C181.622 100.16 181.43 99.996 181.198 99.876C180.966 99.756 180.714 99.696 180.442 99.696C180.01 99.696 179.646 99.78 179.35 99.948C179.054 100.108 178.83 100.348 178.678 100.668C178.526 100.98 178.45 101.368 178.45 101.832C178.45 102.272 178.542 102.656 178.726 102.984C178.91 103.304 179.17 103.552 179.506 103.728C179.842 103.904 180.23 103.992 180.67 103.992C180.982 103.992 181.27 103.94 181.534 103.836C181.806 103.732 182.098 103.544 182.41 103.272L183.034 104.148C182.842 104.34 182.606 104.508 182.326 104.652C182.054 104.796 181.762 104.912 181.45 105C181.146 105.08 180.846 105.12 180.55 105.12ZM190.621 107.232C189.645 106.624 188.901 105.864 188.389 104.952C187.877 104.04 187.621 103.024 187.621 101.904C187.621 100.792 187.877 99.78 188.389 98.868C188.909 97.948 189.657 97.184 190.633 96.576L191.293 97.32C190.477 97.888 189.853 98.568 189.421 99.36C188.997 100.144 188.785 100.992 188.785 101.904C188.785 102.816 188.997 103.668 189.421 104.46C189.853 105.244 190.477 105.92 191.293 106.488L190.621 107.232ZM192.711 105V96.6H194.007V105H192.711ZM193.287 101.424V100.176H197.619V101.424H193.287ZM193.287 97.848V96.6H198.159V97.848H193.287ZM199.654 107.232L198.994 106.488C199.81 105.92 200.43 105.244 200.854 104.46C201.286 103.668 201.502 102.816 201.502 101.904C201.502 100.992 201.286 100.144 200.854 99.36C200.43 98.568 199.81 97.888 198.994 97.32L199.666 96.576C200.642 97.184 201.386 97.944 201.898 98.856C202.41 99.768 202.666 100.784 202.666 101.904C202.666 103.016 202.406 104.032 201.886 104.952C201.374 105.864 200.63 106.624 199.654 107.232Z" fill="#880000"/>
<path d="M214.293 116.707C214.683 117.098 215.317 117.098 215.707 116.707L222.071 110.343C222.462 109.953 222.462 109.319 222.071 108.929C221.681 108.538 221.047 108.538 220.657 108.929L215 114.586L209.343 108.929C208.953 108.538 208.319 108.538 207.929 108.929C207.538 109.319 207.538 109.953 207.929 110.343L214.293 116.707ZM214 88L214 116L216 116L216 88L214 88Z" fill="#880000"/>
<line x1="380" y1="30.5" x2="50" y2="30.5" stroke="#666666" stroke-dasharray="2 2"/>
<line x1="230" y1="31" x2="216" y2="31" stroke="#008800" stroke-width="2"/>
<line x1="223" y1="40" x2="223" y2="30" stroke="#008800" stroke-width="2"/>
<line x1="216" y1="39" x2="230" y2="39" stroke="#008800" stroke-width="2"/>
<path d="M64.7375 121L67.9895 112.6H69.3095L72.5375 121H71.1575L69.2375 115.936C69.2135 115.88 69.1655 115.744 69.0935 115.528C69.0295 115.312 68.9535 115.072 68.8655 114.808C68.7775 114.544 68.6975 114.304 68.6255 114.088C68.5535 113.864 68.5055 113.72 68.4815 113.656L68.7575 113.644C68.7095 113.78 68.6495 113.952 68.5775 114.16C68.5135 114.368 68.4415 114.588 68.3615 114.82C68.2895 115.052 68.2175 115.272 68.1455 115.48C68.0735 115.68 68.0135 115.848 67.9655 115.984L66.0575 121H64.7375ZM66.1775 118.912L66.6575 117.664H70.4735L71.0255 118.912H66.1775ZM73.7038 123.64V114.7H74.9518V116.14L74.7598 116.032C74.8078 115.792 74.9438 115.564 75.1678 115.348C75.3918 115.124 75.6638 114.944 75.9838 114.808C76.3118 114.664 76.6478 114.592 76.9918 114.592C77.5598 114.592 78.0638 114.732 78.5038 115.012C78.9438 115.292 79.2918 115.676 79.5478 116.164C79.8038 116.652 79.9318 117.212 79.9318 117.844C79.9318 118.468 79.8038 119.028 79.5478 119.524C79.2998 120.012 78.9558 120.4 78.5158 120.688C78.0758 120.968 77.5798 121.108 77.0278 121.108C76.6598 121.108 76.3038 121.036 75.9598 120.892C75.6158 120.74 75.3238 120.548 75.0838 120.316C74.8438 120.084 74.6958 119.844 74.6398 119.596L74.9518 119.428V123.64H73.7038ZM76.8238 119.968C77.1918 119.968 77.5198 119.876 77.8078 119.692C78.0958 119.508 78.3238 119.256 78.4918 118.936C78.6598 118.616 78.7438 118.252 78.7438 117.844C78.7438 117.436 78.6598 117.076 78.4918 116.764C78.3318 116.444 78.1078 116.192 77.8198 116.008C77.5318 115.824 77.1998 115.732 76.8238 115.732C76.4478 115.732 76.1158 115.824 75.8278 116.008C75.5398 116.184 75.3118 116.432 75.1438 116.752C74.9758 117.072 74.8918 117.436 74.8918 117.844C74.8918 118.252 74.9758 118.616 75.1438 118.936C75.3118 119.256 75.5398 119.508 75.8278 119.692C76.1158 119.876 76.4478 119.968 76.8238 119.968ZM81.2742 123.64V114.7H82.5222V116.14L82.3302 116.032C82.3782 115.792 82.5142 115.564 82.7382 115.348C82.9622 115.124 83.2342 114.944 83.5542 114.808C83.8822 114.664 84.2182 114.592 84.5622 114.592C85.1302 114.592 85.6342 114.732 86.0742 115.012C86.5142 115.292 86.8622 115.676 87.1182 116.164C87.3742 116.652 87.5022 117.212 87.5022 117.844C87.5022 118.468 87.3742 119.028 87.1182 119.524C86.8702 120.012 86.5262 120.4 86.0862 120.688C85.6462 120.968 85.1502 121.108 84.5982 121.108C84.2302 121.108 83.8742 121.036 83.5302 120.892C83.1862 120.74 82.8942 120.548 82.6542 120.316C82.4142 120.084 82.2662 119.844 82.2102 119.596L82.5222 119.428V123.64H81.2742ZM84.3942 119.968C84.7622 119.968 85.0902 119.876 85.3782 119.692C85.6662 119.508 85.8942 119.256 86.0622 118.936C86.2302 118.616 86.3142 118.252 86.3142 117.844C86.3142 117.436 86.2302 117.076 86.0622 116.764C85.9022 116.444 85.6782 116.192 85.3902 116.008C85.1022 115.824 84.7702 115.732 84.3942 115.732C84.0182 115.732 83.6862 115.824 83.3982 116.008C83.1102 116.184 82.8822 116.432 82.7142 116.752C82.5462 117.072 82.4622 117.436 82.4622 117.844C82.4622 118.252 82.5462 118.616 82.7142 118.936C82.8822 119.256 83.1102 119.508 83.3982 119.692C83.6862 119.876 84.0182 119.968 84.3942 119.968ZM88.8685 121V112.12H90.1045V121H88.8685ZM92.0602 121V114.7H93.2962V121H92.0602ZM92.6602 113.308C92.3962 113.308 92.1922 113.24 92.0482 113.104C91.9042 112.968 91.8322 112.776 91.8322 112.528C91.8322 112.296 91.9042 112.108 92.0482 111.964C92.2002 111.82 92.4042 111.748 92.6602 111.748C92.9242 111.748 93.1282 111.816 93.2722 111.952C93.4162 112.088 93.4882 112.28 93.4882 112.528C93.4882 112.76 93.4122 112.948 93.2602 113.092C93.1162 113.236 92.9162 113.308 92.6602 113.308ZM98.136 121.12C97.488 121.12 96.912 120.984 96.408 120.712C95.912 120.432 95.52 120.052 95.232 119.572C94.952 119.092 94.812 118.54 94.812 117.916C94.812 117.42 94.892 116.968 95.052 116.56C95.212 116.152 95.432 115.8 95.712 115.504C96 115.2 96.34 114.968 96.732 114.808C97.132 114.64 97.564 114.556 98.028 114.556C98.436 114.556 98.816 114.636 99.168 114.796C99.52 114.948 99.824 115.16 100.08 115.432C100.344 115.704 100.544 116.028 100.68 116.404C100.824 116.772 100.892 117.176 100.884 117.616L100.872 118.144H95.724L95.448 117.16H99.804L99.624 117.364V117.076C99.6 116.812 99.512 116.576 99.36 116.368C99.208 116.16 99.016 115.996 98.784 115.876C98.552 115.756 98.3 115.696 98.028 115.696C97.596 115.696 97.232 115.78 96.936 115.948C96.64 116.108 96.416 116.348 96.264 116.668C96.112 116.98 96.036 117.368 96.036 117.832C96.036 118.272 96.128 118.656 96.312 118.984C96.496 119.304 96.756 119.552 97.092 119.728C97.428 119.904 97.816 119.992 98.256 119.992C98.568 119.992 98.856 119.94 99.12 119.836C99.392 119.732 99.684 119.544 99.996 119.272L100.62 120.148C100.428 120.34 100.192 120.508 99.912 120.652C99.64 120.796 99.348 120.912 99.036 121C98.732 121.08 98.432 121.12 98.136 121.12ZM104.855 121.12C104.279 121.12 103.763 120.98 103.307 120.7C102.859 120.412 102.503 120.024 102.239 119.536C101.975 119.04 101.843 118.476 101.843 117.844C101.843 117.212 101.971 116.652 102.227 116.164C102.491 115.668 102.847 115.28 103.295 115C103.743 114.712 104.251 114.568 104.819 114.568C105.131 114.568 105.431 114.62 105.719 114.724C106.015 114.82 106.279 114.956 106.511 115.132C106.743 115.3 106.923 115.488 107.051 115.696C107.187 115.896 107.255 116.1 107.255 116.308L106.895 116.332V112.12H108.131V121H106.895V119.5H107.135C107.135 119.692 107.071 119.884 106.943 120.076C106.815 120.26 106.643 120.432 106.427 120.592C106.219 120.752 105.975 120.88 105.695 120.976C105.423 121.072 105.143 121.12 104.855 121.12ZM105.023 120.052C105.399 120.052 105.731 119.956 106.019 119.764C106.307 119.572 106.531 119.312 106.691 118.984C106.859 118.648 106.943 118.268 106.943 117.844C106.943 117.42 106.859 117.044 106.691 116.716C106.531 116.38 106.307 116.116 106.019 115.924C105.731 115.732 105.399 115.636 105.023 115.636C104.647 115.636 104.315 115.732 104.027 115.924C103.739 116.116 103.511 116.38 103.343 116.716C103.183 117.044 103.103 117.42 103.103 117.844C103.103 118.268 103.183 118.648 103.343 118.984C103.511 119.312 103.739 119.572 104.027 119.764C104.315 119.956 104.647 120.052 105.023 120.052ZM113.976 121V113.092H115.212V121H113.976ZM112.668 115.9V114.7H116.676V115.9H112.668ZM120.575 121.12C119.959 121.12 119.407 120.98 118.919 120.7C118.439 120.412 118.059 120.024 117.779 119.536C117.499 119.04 117.359 118.476 117.359 117.844C117.359 117.212 117.499 116.652 117.779 116.164C118.059 115.668 118.439 115.28 118.919 115C119.407 114.712 119.959 114.568 120.575 114.568C121.183 114.568 121.727 114.712 122.207 115C122.695 115.28 123.079 115.668 123.359 116.164C123.639 116.652 123.779 117.212 123.779 117.844C123.779 118.476 123.639 119.04 123.359 119.536C123.079 120.024 122.695 120.412 122.207 120.7C121.727 120.98 121.183 121.12 120.575 121.12ZM120.575 119.992C120.951 119.992 121.287 119.9 121.583 119.716C121.879 119.524 122.111 119.268 122.279 118.948C122.447 118.62 122.527 118.252 122.519 117.844C122.527 117.428 122.447 117.06 122.279 116.74C122.111 116.412 121.879 116.156 121.583 115.972C121.287 115.788 120.951 115.696 120.575 115.696C120.199 115.696 119.859 115.792 119.555 115.984C119.259 116.168 119.027 116.424 118.859 116.752C118.691 117.072 118.611 117.436 118.619 117.844C118.611 118.252 118.691 118.62 118.859 118.948C119.027 119.268 119.259 119.524 119.555 119.716C119.859 119.9 120.199 119.992 120.575 119.992ZM131.165 121.12C130.581 121.12 130.057 120.976 129.593 120.688C129.137 120.4 128.773 120.008 128.501 119.512C128.237 119.016 128.105 118.46 128.105 117.844C128.105 117.228 128.237 116.672 128.501 116.176C128.773 115.68 129.137 115.288 129.593 115C130.057 114.712 130.581 114.568 131.165 114.568C131.725 114.568 132.233 114.684 132.689 114.916C133.153 115.14 133.505 115.448 133.745 115.84L133.061 116.68C132.933 116.496 132.769 116.328 132.569 116.176C132.369 116.024 132.157 115.904 131.933 115.816C131.709 115.728 131.493 115.684 131.285 115.684C130.901 115.684 130.557 115.78 130.253 115.972C129.957 116.156 129.721 116.412 129.545 116.74C129.369 117.068 129.281 117.436 129.281 117.844C129.281 118.252 129.373 118.62 129.557 118.948C129.741 119.268 129.985 119.524 130.289 119.716C130.593 119.908 130.929 120.004 131.297 120.004C131.513 120.004 131.721 119.968 131.921 119.896C132.129 119.824 132.329 119.716 132.521 119.572C132.713 119.428 132.893 119.252 133.061 119.044L133.745 119.884C133.489 120.244 133.121 120.54 132.641 120.772C132.169 121.004 131.677 121.12 131.165 121.12ZM137.851 121.12C137.203 121.12 136.627 120.984 136.123 120.712C135.627 120.432 135.235 120.052 134.947 119.572C134.667 119.092 134.527 118.54 134.527 117.916C134.527 117.42 134.607 116.968 134.767 116.56C134.927 116.152 135.147 115.8 135.427 115.504C135.715 115.2 136.055 114.968 136.447 114.808C136.847 114.64 137.279 114.556 137.743 114.556C138.151 114.556 138.531 114.636 138.883 114.796C139.235 114.948 139.539 115.16 139.795 115.432C140.059 115.704 140.259 116.028 140.395 116.404C140.539 116.772 140.607 117.176 140.599 117.616L140.587 118.144H135.439L135.163 117.16H139.519L139.339 117.364V117.076C139.315 116.812 139.227 116.576 139.075 116.368C138.923 116.16 138.731 115.996 138.499 115.876C138.267 115.756 138.015 115.696 137.743 115.696C137.311 115.696 136.947 115.78 136.651 115.948C136.355 116.108 136.131 116.348 135.979 116.668C135.827 116.98 135.751 117.368 135.751 117.832C135.751 118.272 135.843 118.656 136.027 118.984C136.211 119.304 136.471 119.552 136.807 119.728C137.143 119.904 137.531 119.992 137.971 119.992C138.283 119.992 138.571 119.94 138.835 119.836C139.107 119.732 139.399 119.544 139.711 119.272L140.335 120.148C140.143 120.34 139.907 120.508 139.627 120.652C139.355 120.796 139.063 120.912 138.751 121C138.447 121.08 138.147 121.12 137.851 121.12ZM141.942 121V114.7H143.178V115.996L142.962 116.14C143.042 115.86 143.198 115.604 143.43 115.372C143.662 115.132 143.938 114.94 144.258 114.796C144.578 114.644 144.906 114.568 145.242 114.568C145.722 114.568 146.122 114.664 146.442 114.856C146.762 115.04 147.002 115.324 147.162 115.708C147.322 116.092 147.402 116.576 147.402 117.16V121H146.166V117.244C146.166 116.884 146.118 116.588 146.022 116.356C145.926 116.116 145.778 115.944 145.578 115.84C145.378 115.728 145.13 115.68 144.834 115.696C144.594 115.696 144.374 115.736 144.174 115.816C143.974 115.888 143.798 115.992 143.646 116.128C143.502 116.264 143.386 116.424 143.298 116.608C143.218 116.784 143.178 116.976 143.178 117.184V121H142.566C142.462 121 142.358 121 142.254 121C142.15 121 142.046 121 141.942 121ZM149.859 121V113.092H151.095V121H149.859ZM148.551 115.9V114.7H152.559V115.9H148.551ZM153.684 121V114.7H154.932V116.68L154.812 116.2C154.9 115.896 155.048 115.62 155.256 115.372C155.472 115.124 155.716 114.928 155.988 114.784C156.268 114.64 156.556 114.568 156.852 114.568C156.988 114.568 157.116 114.58 157.236 114.604C157.364 114.628 157.464 114.656 157.536 114.688L157.212 116.032C157.116 115.992 157.008 115.96 156.888 115.936C156.776 115.904 156.664 115.888 156.552 115.888C156.336 115.888 156.128 115.932 155.928 116.02C155.736 116.1 155.564 116.216 155.412 116.368C155.268 116.512 155.152 116.684 155.064 116.884C154.976 117.076 154.932 117.288 154.932 117.52V121H153.684ZM161.195 121.12C160.547 121.12 159.971 120.984 159.467 120.712C158.971 120.432 158.579 120.052 158.291 119.572C158.011 119.092 157.871 118.54 157.871 117.916C157.871 117.42 157.951 116.968 158.111 116.56C158.271 116.152 158.491 115.8 158.771 115.504C159.059 115.2 159.399 114.968 159.791 114.808C160.191 114.64 160.623 114.556 161.087 114.556C161.495 114.556 161.875 114.636 162.227 114.796C162.579 114.948 162.883 115.16 163.139 115.432C163.403 115.704 163.603 116.028 163.739 116.404C163.883 116.772 163.951 117.176 163.943 117.616L163.931 118.144H158.783L158.507 117.16H162.863L162.683 117.364V117.076C162.659 116.812 162.571 116.576 162.419 116.368C162.267 116.16 162.075 115.996 161.843 115.876C161.611 115.756 161.359 115.696 161.087 115.696C160.655 115.696 160.291 115.78 159.995 115.948C159.699 116.108 159.475 116.348 159.323 116.668C159.171 116.98 159.095 117.368 159.095 117.832C159.095 118.272 159.187 118.656 159.371 118.984C159.555 119.304 159.815 119.552 160.151 119.728C160.487 119.904 160.875 119.992 161.315 119.992C161.627 119.992 161.915 119.94 162.179 119.836C162.451 119.732 162.743 119.544 163.055 119.272L163.679 120.148C163.487 120.34 163.251 120.508 162.971 120.652C162.699 120.796 162.407 120.912 162.095 121C161.791 121.08 161.491 121.12 161.195 121.12ZM171.481 121.12C170.865 121.12 170.313 120.98 169.825 120.7C169.345 120.412 168.965 120.024 168.685 119.536C168.405 119.04 168.265 118.476 168.265 117.844C168.265 117.212 168.405 116.652 168.685 116.164C168.965 115.668 169.345 115.28 169.825 115C170.313 114.712 170.865 114.568 171.481 114.568C172.089 114.568 172.633 114.712 173.113 115C173.601 115.28 173.985 115.668 174.265 116.164C174.545 116.652 174.685 117.212 174.685 117.844C174.685 118.476 174.545 119.04 174.265 119.536C173.985 120.024 173.601 120.412 173.113 120.7C172.633 120.98 172.089 121.12 171.481 121.12ZM171.481 119.992C171.857 119.992 172.193 119.9 172.489 119.716C172.785 119.524 173.017 119.268 173.185 118.948C173.353 118.62 173.433 118.252 173.425 117.844C173.433 117.428 173.353 117.06 173.185 116.74C173.017 116.412 172.785 116.156 172.489 115.972C172.193 115.788 171.857 115.696 171.481 115.696C171.105 115.696 170.765 115.792 170.461 115.984C170.165 116.168 169.933 116.424 169.765 116.752C169.597 117.072 169.517 117.436 169.525 117.844C169.517 118.252 169.597 118.62 169.765 118.948C169.933 119.268 170.165 119.524 170.461 119.716C170.765 119.9 171.105 119.992 171.481 119.992ZM176.482 121V113.992C176.482 113.632 176.562 113.312 176.722 113.032C176.882 112.752 177.102 112.532 177.382 112.372C177.662 112.212 177.986 112.132 178.354 112.132C178.61 112.132 178.85 112.18 179.074 112.276C179.298 112.372 179.478 112.5 179.614 112.66L179.194 113.608C179.09 113.512 178.974 113.436 178.846 113.38C178.726 113.316 178.61 113.284 178.498 113.284C178.33 113.284 178.186 113.312 178.066 113.368C177.954 113.416 177.87 113.496 177.814 113.608C177.758 113.712 177.73 113.84 177.73 113.992V121H177.106C177.002 121 176.898 121 176.794 121C176.69 121 176.586 121 176.482 121ZM175.474 115.948V114.808H179.218V115.948H175.474ZM187.184 121.12C186.912 121.12 186.64 121.076 186.368 120.988C186.104 120.9 185.86 120.784 185.636 120.64C185.42 120.488 185.236 120.324 185.084 120.148C184.94 119.964 184.844 119.78 184.796 119.596L185.108 119.428V120.964H183.872V112.12H185.108V116.14L184.916 116.032C184.956 115.848 185.044 115.672 185.18 115.504C185.316 115.328 185.488 115.172 185.696 115.036C185.912 114.892 186.144 114.78 186.392 114.7C186.64 114.612 186.892 114.568 187.148 114.568C187.716 114.568 188.22 114.708 188.66 114.988C189.1 115.268 189.448 115.656 189.704 116.152C189.96 116.64 190.088 117.2 190.088 117.832C190.088 118.464 189.96 119.028 189.704 119.524C189.456 120.02 189.112 120.412 188.672 120.7C188.232 120.98 187.736 121.12 187.184 121.12ZM186.98 119.992C187.348 119.992 187.676 119.9 187.964 119.716C188.252 119.524 188.48 119.268 188.648 118.948C188.816 118.62 188.9 118.248 188.9 117.832C188.9 117.424 188.816 117.06 188.648 116.74C188.488 116.412 188.264 116.156 187.976 115.972C187.688 115.788 187.356 115.696 186.98 115.696C186.604 115.696 186.272 115.788 185.984 115.972C185.696 116.156 185.468 116.412 185.3 116.74C185.132 117.06 185.048 117.424 185.048 117.832C185.048 118.248 185.132 118.62 185.3 118.948C185.468 119.268 185.696 119.524 185.984 119.716C186.272 119.9 186.604 119.992 186.98 119.992ZM193.854 121.12C193.334 121.12 192.858 120.976 192.426 120.688C192.002 120.4 191.662 120.008 191.406 119.512C191.15 119.016 191.022 118.456 191.022 117.832C191.022 117.2 191.15 116.64 191.406 116.152C191.67 115.656 192.022 115.268 192.462 114.988C192.91 114.708 193.41 114.568 193.962 114.568C194.29 114.568 194.59 114.616 194.862 114.712C195.134 114.808 195.37 114.944 195.57 115.12C195.778 115.288 195.946 115.484 196.074 115.708C196.21 115.932 196.294 116.172 196.326 116.428L196.05 116.332V114.7H197.298V121H196.05V119.5L196.338 119.416C196.29 119.632 196.19 119.844 196.038 120.052C195.894 120.252 195.706 120.432 195.474 120.592C195.25 120.752 194.998 120.88 194.718 120.976C194.446 121.072 194.158 121.12 193.854 121.12ZM194.178 119.98C194.554 119.98 194.886 119.888 195.174 119.704C195.462 119.52 195.686 119.268 195.846 118.948C196.014 118.62 196.098 118.248 196.098 117.832C196.098 117.424 196.014 117.06 195.846 116.74C195.686 116.42 195.462 116.168 195.174 115.984C194.886 115.8 194.554 115.708 194.178 115.708C193.81 115.708 193.482 115.8 193.194 115.984C192.914 116.168 192.69 116.42 192.522 116.74C192.362 117.06 192.282 117.424 192.282 117.832C192.282 118.248 192.362 118.62 192.522 118.948C192.69 119.268 192.914 119.52 193.194 119.704C193.482 119.888 193.81 119.98 194.178 119.98ZM199.024 121V114.7H200.272V116.68L200.152 116.2C200.24 115.896 200.388 115.62 200.596 115.372C200.812 115.124 201.056 114.928 201.328 114.784C201.608 114.64 201.896 114.568 202.192 114.568C202.328 114.568 202.456 114.58 202.576 114.604C202.704 114.628 202.804 114.656 202.876 114.688L202.552 116.032C202.456 115.992 202.348 115.96 202.228 115.936C202.116 115.904 202.004 115.888 201.892 115.888C201.676 115.888 201.468 115.932 201.268 116.02C201.076 116.1 200.904 116.216 200.752 116.368C200.608 116.512 200.492 116.684 200.404 116.884C200.316 117.076 200.272 117.288 200.272 117.52V121H199.024Z" fill="black"/>
</svg>
